<svg
  width="16"
  height="16"
  viewBox="0 0 16 16"
  fill="none"
  xmlns="http://www.w3.org/2000/svg"
>
<path
    fill-rule="evenodd"
    clip-rule="evenodd"
    d="M12.4713 3.52925C12.7317 3.7896 12.7317 4.21171 12.4713 4.47206L4.47132 12.4721C4.21097 12.7324 3.78886 12.7324 3.52851 12.4721C3.26816 12.2117 3.26816 11.7896 3.52851 11.5292L11.5285 3.52925C11.7889 3.2689 12.211 3.2689 12.4713 3.52925Z"
    fill="#898D9A"
  />
<path
    fill-rule="evenodd"
    clip-rule="evenodd"
    d="M3.52851 3.52925C3.78886 3.2689 4.21097 3.2689 4.47132 3.52925L12.4713 11.5292C12.7317 11.7896 12.7317 12.2117 12.4713 12.4721C12.211 12.7324 11.7889 12.7324 11.5285 12.4721L3.52851 4.47206C3.26816 4.21171 3.26816 3.7896 3.52851 3.52925Z"
    fill="#898D9A"
  />
<path
    d="M12 4L4 12"
    stroke="#A9ABB2"
    stroke-width="1.4"
    stroke-linecap="round"
    stroke-linejoin="round"
  />
<path
    d="M4 4L12 12"
    stroke="#A9ABB2"
    stroke-width="1.4"
    stroke-linecap="round"
    stroke-linejoin="round"
  />
</svg>
