<svg
  width="16"
  height="16"
  viewBox="0 0 16 16"
  fill="none"
  xmlns="http://www.w3.org/2000/svg"
>
<path
    d="M6.66666 5.93331H12.6667C13.0717 5.93331 13.4 6.26164 13.4 6.66665V12.6666C13.4 13.0717 13.0717 13.4 12.6667 13.4H6.66666C6.26165 13.4 5.93333 13.0717 5.93333 12.6666V6.66665C5.93333 6.26164 6.26165 5.93331 6.66666 5.93331Z"
    stroke="#898D9A"
    stroke-width="1.2"
    stroke-linecap="round"
    stroke-linejoin="round"
  />
<path
    d="M10 3.79489C10 3.49567 9.88114 3.20871 9.66956 2.99713C9.45798 2.78555 9.17102 2.66669 8.8718 2.66669L3.79488 2.66669C3.49566 2.66669 3.20869 2.78555 2.99712 2.99713C2.78554 3.20871 2.66667 3.49567 2.66667 3.79489L2.66667 8.87181C2.66667 9.17103 2.78554 9.458 2.99712 9.66958C3.20869 9.88116 3.49566 10 3.79488 10"
    stroke="#898D9A"
    stroke-width="1.2"
    stroke-linecap="round"
    stroke-linejoin="round"
  />
</svg>
