<svg
  width="24"
  height="24"
  viewBox="0 0 24 24"
  fill="none"
  xmlns="http://www.w3.org/2000/svg"
><path
    fill-rule="evenodd"
    clip-rule="evenodd"
    d="M10.286.99a3.429 3.429 0 0 1 3.428 0l6.964 4.02a3.429 3.429 0 0 1 1.714 2.97v8.04a3.428 3.428 0 0 1-1.714 2.97l-6.964 4.02a3.429 3.429 0 0 1-3.428 0l-6.964-4.02a3.428 3.428 0 0 1-1.714-2.97V7.98c0-1.225.653-2.357 1.714-2.97L10.286.99z"
    fill="#fff"
  /><path
    fill-rule="evenodd"
    clip-rule="evenodd"
    d="M20.164 5.901L13.2 1.881a2.4 2.4 0 0 0-2.4 0L3.836 5.9a2.4 2.4 0 0 0-1.2 2.078v8.041a2.4 2.4 0 0 0 1.2 2.079l6.964 4.02a2.4 2.4 0 0 0 2.4 0l6.964-4.02a2.4 2.4 0 0 0 1.2-2.079V7.98a2.4 2.4 0 0 0-1.2-2.079zM13.714.99a3.429 3.429 0 0 0-3.428 0L3.322 5.01a3.429 3.429 0 0 0-1.714 2.97v8.04c0 1.225.653 2.357 1.714 2.97l6.964 4.02a3.429 3.429 0 0 0 3.428 0l6.964-4.02a3.428 3.428 0 0 0 1.714-2.97V7.98a3.429 3.429 0 0 0-1.714-2.97L13.714.99z"
    fill="#44D7B6"
  /><path
    fill-rule="evenodd"
    clip-rule="evenodd"
    d="M7.354 15.145l4.441 4.442 4.47-4.47-1.481-1.482-2.971 2.972-1.478-1.478 2.971-2.97-1.482-1.484-4.47 4.47z"
    fill="#231916"
  /><path
    fill-rule="evenodd"
    clip-rule="evenodd"
    d="M11.847 4.695l-5.959 5.96.02 2.951 5.912-5.912 5.936 5.936.01-3.016-5.919-5.919z"
    fill="#38A0DA"
  /></svg>
