<svg width="20" height="20" viewBox="0 0 20 20" fill="none" xmlns="http://www.w3.org/2000/svg">
<path d="M2.42661 16.6772L12.1815 16.6773" stroke="#3D3F4C" stroke-width="1.8" stroke-linecap="round" stroke-linejoin="round"/>
<path d="M3.25998 8.23395L11.3482 8.23402" stroke="#3D3F4C" stroke-width="1.4" stroke-linecap="round" stroke-linejoin="round"/>
<path d="M11.3482 10.7684L12.5734 10.7685C13.0154 10.7685 13.4393 10.9441 13.7519 11.2567C14.0645 11.5692 14.24 11.9932 14.24 12.4352V13.304C14.24 13.746 14.4156 14.17 14.7282 14.4825C15.0408 14.7951 15.4647 14.9707 15.9067 14.9707C16.3487 14.9707 16.7727 14.7951 17.0852 14.4825C17.3978 14.17 17.5734 13.746 17.5734 13.304V9.22734C17.5736 9.00742 17.5302 8.78963 17.4458 8.58654C17.3614 8.38344 17.2377 8.19906 17.0817 8.04401L14.24 5.20234" stroke="#A9ABB2" stroke-width="1.4" stroke-linecap="round" stroke-linejoin="round"/>
<path d="M11.3482 16.6771V4.98944C11.3482 4.54741 11.1726 4.12349 10.86 3.81093C10.5475 3.49837 10.1235 3.32277 9.68151 3.32277L4.92665 3.32275C4.48462 3.32275 4.0607 3.49835 3.74813 3.81091C3.43557 4.12347 3.25998 4.54739 3.25998 4.98942V16.6771" stroke="#3D3F4C" stroke-width="1.4" stroke-linecap="round" stroke-linejoin="round"/>
</svg>
