<svg width="480" height="180" viewBox="0 0 480 180" fill="none" xmlns="http://www.w3.org/2000/svg">
<mask id="mask0_9497_11435" style="mask-type:alpha" maskUnits="userSpaceOnUse" x="0" y="0" width="480" height="180">
<rect width="480" height="180" fill="#C4C4C4"/>
</mask>
<g mask="url(#mask0_9497_11435)">
<ellipse cx="240" cy="168.5" rx="178" ry="7.5" fill="url(#paint0_linear_9497_11435)" fill-opacity="0.4"/>
<rect x="87" y="30" width="307" height="136" rx="12" fill="url(#paint1_linear_9497_11435)"/>
<mask id="mask1_9497_11435" style="mask-type:alpha" maskUnits="userSpaceOnUse" x="107" y="44" width="269" height="60">
<rect x="107" y="44" width="269" height="60" rx="4" fill="white"/>
</mask>
<g mask="url(#mask1_9497_11435)">
<circle cx="135" cy="73" r="16" fill="white"/>
<circle cx="135" cy="73" r="16" fill="white"/>
<mask id="mask2_9497_11435" style="mask-type:alpha" maskUnits="userSpaceOnUse" x="120" y="58" width="30" height="30">
<path d="M135 88C143.284 88 150 81.2843 150 73C150 64.7157 143.284 58 135 58C126.716 58 120 64.7157 120 73C120 81.2843 126.716 88 135 88Z" fill="white"/>
</mask>
<g mask="url(#mask2_9497_11435)">
<path d="M135 88.375C143.491 88.375 150.375 81.4914 150.375 73C150.375 64.5086 143.491 57.625 135 57.625C126.509 57.625 119.625 64.5086 119.625 73C119.625 81.4914 126.509 88.375 135 88.375Z" stroke="white" stroke-width="1.5"/>
<path d="M152.5 55.5H117.5V90.5H152.5V55.5Z" fill="#0E7181"/>
<path d="M130.5 58H107.5V94.5H130.5V58Z" fill="#FFE25E"/>
<path d="M141.75 70.5C156.524 70.5 168.5 58.5236 168.5 43.75C168.5 28.9764 156.524 17 141.75 17C126.976 17 115 28.9764 115 43.75C115 58.5236 126.976 70.5 141.75 70.5Z" fill="#EF6C61"/>
<path d="M149 105C158.389 105 166 97.3888 166 88C166 78.6112 158.389 71 149 71C139.611 71 132 78.6112 132 88C132 97.3888 139.611 105 149 105Z" fill="#00404E"/>
</g>
<path d="M159.203 74H161.039L162.078 70.9531H166.422L167.453 74H169.289L165.195 62.7266H163.305L159.203 74ZM164.234 64.5938H164.266L165.945 69.5469H162.547L164.234 64.5938ZM173.648 74.1641C175.625 74.1641 177 72.8984 177.18 71.25L177.188 71.1953H175.562L175.555 71.2578C175.352 72.1484 174.688 72.75 173.648 72.75C172.344 72.75 171.477 71.6953 171.477 69.8984V69.8906C171.477 68.1328 172.328 67.0391 173.641 67.0391C174.742 67.0391 175.367 67.7188 175.547 68.5234L175.562 68.5859H177.172L177.164 68.5312C177.023 66.9844 175.742 65.625 173.625 65.625C171.281 65.625 169.75 67.2734 169.75 69.875V69.8828C169.75 72.5156 171.25 74.1641 173.648 74.1641ZM181.914 74.1641C183.891 74.1641 185.266 72.8984 185.445 71.25L185.453 71.1953H183.828L183.82 71.2578C183.617 72.1484 182.953 72.75 181.914 72.75C180.609 72.75 179.742 71.6953 179.742 69.8984V69.8906C179.742 68.1328 180.594 67.0391 181.906 67.0391C183.008 67.0391 183.633 67.7188 183.812 68.5234L183.828 68.5859H185.438L185.43 68.5312C185.289 66.9844 184.008 65.625 181.891 65.625C179.547 65.625 178.016 67.2734 178.016 69.875V69.8828C178.016 72.5156 179.516 74.1641 181.914 74.1641ZM190.18 74.1641C192.531 74.1641 194.078 72.5391 194.078 69.8906V69.875C194.078 67.2422 192.516 65.625 190.172 65.625C187.836 65.625 186.281 67.25 186.281 69.875V69.8906C186.281 72.5312 187.82 74.1641 190.18 74.1641ZM190.188 72.75C188.867 72.75 188.008 71.7109 188.008 69.8906V69.875C188.008 68.0781 188.875 67.0391 190.172 67.0391C191.492 67.0391 192.352 68.0781 192.352 69.875V69.8906C192.352 71.7031 191.508 72.75 190.188 72.75ZM198.18 74.1641C199.43 74.1641 200.266 73.5938 200.695 72.7656H200.734V74H202.43V65.7812H200.734V70.5781C200.734 71.8594 199.969 72.7109 198.781 72.7109C197.609 72.7109 197.031 72.0234 197.031 70.7812V65.7812H195.344V71.1094C195.344 73 196.375 74.1641 198.18 74.1641ZM204.102 74H205.789V69.2109C205.789 67.9297 206.555 67.0703 207.742 67.0703C208.914 67.0703 209.492 67.7656 209.492 69V74H211.188V68.6797C211.188 66.7891 210.148 65.625 208.344 65.625C207.102 65.625 206.258 66.1875 205.828 67.0234H205.789V65.7812H204.102V74ZM215.703 74.1641C216.047 74.1641 216.367 74.125 216.562 74.0938V72.7891C216.438 72.8047 216.289 72.8203 216.109 72.8203C215.398 72.8203 215.023 72.5703 215.023 71.7344V67.125H216.562V65.7812H215.023V63.6406H213.297V65.7812H212.117V67.125H213.297V71.8359C213.297 73.4766 214.078 74.1641 215.703 74.1641ZM220.578 74H222.414L223.453 70.9531H227.797L228.828 74H230.664L226.57 62.7266H224.68L220.578 74ZM225.609 64.5938H225.641L227.32 69.5469H223.922L225.609 64.5938ZM234.562 74.1641C235.742 74.1641 236.648 73.5703 237.141 72.6094H237.172V74H238.867V62.7266H237.172V67.1797H237.141C236.648 66.2109 235.711 65.625 234.547 65.625C232.484 65.625 231.125 67.2656 231.125 69.8828V69.8906C231.125 72.5078 232.469 74.1641 234.562 74.1641ZM235.008 72.7109C233.672 72.7109 232.852 71.6406 232.852 69.8906V69.8828C232.852 68.1484 233.68 67.0703 235.008 67.0703C236.273 67.0703 237.18 68.1797 237.18 69.8828V69.8906C237.18 71.6016 236.281 72.7109 235.008 72.7109ZM243.672 74.1641C244.852 74.1641 245.758 73.5703 246.25 72.6094H246.281V74H247.977V62.7266H246.281V67.1797H246.25C245.758 66.2109 244.82 65.625 243.656 65.625C241.594 65.625 240.234 67.2656 240.234 69.8828V69.8906C240.234 72.5078 241.578 74.1641 243.672 74.1641ZM244.117 72.7109C242.781 72.7109 241.961 71.6406 241.961 69.8906V69.8828C241.961 68.1484 242.789 67.0703 244.117 67.0703C245.383 67.0703 246.289 68.1797 246.289 69.8828V69.8906C246.289 71.6016 245.391 72.7109 244.117 72.7109ZM253.219 74.1641C255.211 74.1641 256.477 72.9766 256.742 71.6719L256.758 71.5859H255.156L255.133 71.6484C254.922 72.2656 254.258 72.7812 253.258 72.7812C251.914 72.7812 251.062 71.875 251.031 70.3203H256.852V69.75C256.852 67.2812 255.438 65.625 253.133 65.625C250.828 65.625 249.344 67.3438 249.344 69.9141V69.9219C249.344 72.5156 250.805 74.1641 253.219 74.1641ZM253.141 67.0078C254.242 67.0078 255.039 67.7031 255.18 69.125H251.055C251.203 67.75 252.047 67.0078 253.141 67.0078ZM261.234 74.1641C262.414 74.1641 263.32 73.5703 263.812 72.6094H263.844V74H265.539V62.7266H263.844V67.1797H263.812C263.32 66.2109 262.383 65.625 261.219 65.625C259.156 65.625 257.797 67.2656 257.797 69.8828V69.8906C257.797 72.5078 259.141 74.1641 261.234 74.1641ZM261.68 72.7109C260.344 72.7109 259.523 71.6406 259.523 69.8906V69.8828C259.523 68.1484 260.352 67.0703 261.68 67.0703C262.945 67.0703 263.852 68.1797 263.852 69.8828V69.8906C263.852 71.6016 262.953 72.7109 261.68 72.7109Z" fill="#3D3F4C"/>
<path d="M159.164 91H160.535L161.9 88.7324H161.93L163.295 91H164.689L162.686 87.8828L164.713 84.8359H163.312L161.988 87.0684H161.959L160.617 84.8359H159.193L161.203 87.9238L159.164 91ZM165.047 91H166.418L167.783 88.7324H167.812L169.178 91H170.572L168.568 87.8828L170.596 84.8359H169.195L167.871 87.0684H167.842L166.5 84.8359H165.076L167.086 87.9238L165.047 91ZM170.93 91H172.301L173.666 88.7324H173.695L175.061 91H176.455L174.451 87.8828L176.479 84.8359H175.078L173.754 87.0684H173.725L172.383 84.8359H170.959L172.969 87.9238L170.93 91ZM176.812 91H178.184L179.549 88.7324H179.578L180.943 91H182.338L180.334 87.8828L182.361 84.8359H180.961L179.637 87.0684H179.607L178.266 84.8359H176.842L178.852 87.9238L176.812 91ZM189.363 91.1406C191.232 91.1406 192.633 90.0098 192.896 88.3281L192.902 88.2695H191.602L191.584 88.3223C191.268 89.3945 190.488 89.9805 189.363 89.9805C187.799 89.9805 186.785 88.7266 186.785 86.7695V86.7637C186.785 84.8066 187.793 83.5645 189.363 83.5645C190.5 83.5645 191.285 84.168 191.566 85.1582L191.602 85.2754H192.902L192.891 85.2227C192.627 83.5527 191.227 82.4043 189.363 82.4043C186.967 82.4043 185.443 84.0801 185.443 86.7637V86.7695C185.443 89.4531 186.967 91.1406 189.363 91.1406ZM194.092 91H195.404V87.4609H199.037V86.3535H195.404V83.6758H199.371V82.5449H194.092V91ZM199.992 91H201.445L203.566 87.7715H203.613L205.723 91H207.258L204.445 86.793V86.7695L207.311 82.5449H205.828L203.73 85.8203H203.678L201.586 82.5449H200.021L202.805 86.7285V86.7461L199.992 91Z" fill="#898D9A"/>
</g>
<g opacity="0.1">
<mask id="mask3_9497_11435" style="mask-type:alpha" maskUnits="userSpaceOnUse" x="106" y="104" width="269" height="60">
<rect x="106" y="104" width="269" height="60" rx="4" fill="white"/>
</mask>
<g mask="url(#mask3_9497_11435)">
<circle cx="134" cy="133" r="16" fill="white"/>
<circle cx="134" cy="133" r="16" fill="white"/>
<mask id="mask4_9497_11435" style="mask-type:alpha" maskUnits="userSpaceOnUse" x="119" y="118" width="30" height="30">
<path d="M134 148C142.284 148 149 141.284 149 133C149 124.716 142.284 118 134 118C125.716 118 119 124.716 119 133C119 141.284 125.716 148 134 148Z" fill="white"/>
</mask>
<g mask="url(#mask4_9497_11435)">
<path d="M134 148.375C142.491 148.375 149.375 141.491 149.375 133C149.375 124.509 142.491 117.625 134 117.625C125.509 117.625 118.625 124.509 118.625 133C118.625 141.491 125.509 148.375 134 148.375Z" stroke="white" stroke-width="1.5"/>
<path d="M151.5 115.5H116.5V150.5H151.5V115.5Z" fill="#0E7181"/>
<path d="M140.75 130.5C155.524 130.5 167.5 118.524 167.5 103.75C167.5 88.9764 155.524 77 140.75 77C125.976 77 114 88.9764 114 103.75C114 118.524 125.976 130.5 140.75 130.5Z" fill="#64EF61"/>
<path d="M148 165C157.389 165 165 157.389 165 148C165 138.611 157.389 131 148 131C138.611 131 131 138.611 131 148C131 157.389 138.611 165 148 165Z" fill="#00404E"/>
</g>
<path d="M162.367 134.164C164.719 134.164 166.266 132.539 166.266 129.891V129.875C166.266 127.242 164.703 125.625 162.359 125.625C160.023 125.625 158.469 127.25 158.469 129.875V129.891C158.469 132.531 160.008 134.164 162.367 134.164ZM162.375 132.75C161.055 132.75 160.195 131.711 160.195 129.891V129.875C160.195 128.078 161.062 127.039 162.359 127.039C163.68 127.039 164.539 128.078 164.539 129.875V129.891C164.539 131.703 163.695 132.75 162.375 132.75ZM170.453 134.164C170.797 134.164 171.117 134.125 171.312 134.094V132.789C171.188 132.805 171.039 132.82 170.859 132.82C170.148 132.82 169.773 132.57 169.773 131.734V127.125H171.312V125.781H169.773V123.641H168.047V125.781H166.867V127.125H168.047V131.836C168.047 133.477 168.828 134.164 170.453 134.164ZM172.773 134H174.461V129.242C174.461 127.961 175.234 127.07 176.398 127.07C177.586 127.07 178.273 127.883 178.273 129.242V134H179.961V128.922C179.961 126.938 178.805 125.625 177.047 125.625C175.82 125.625 174.938 126.18 174.5 127.133H174.461V122.727H172.773V134ZM185.109 134.164C187.102 134.164 188.367 132.977 188.633 131.672L188.648 131.586H187.047L187.023 131.648C186.812 132.266 186.148 132.781 185.148 132.781C183.805 132.781 182.953 131.875 182.922 130.32H188.742V129.75C188.742 127.281 187.328 125.625 185.023 125.625C182.719 125.625 181.234 127.344 181.234 129.914V129.922C181.234 132.516 182.695 134.164 185.109 134.164ZM185.031 127.008C186.133 127.008 186.93 127.703 187.07 129.125H182.945C183.094 127.75 183.938 127.008 185.031 127.008ZM190.055 134H191.742V129.102C191.742 127.875 192.414 127.164 193.5 127.164C193.828 127.164 194.125 127.203 194.258 127.258V125.688C194.125 125.664 193.914 125.625 193.672 125.625C192.734 125.625 192.047 126.227 191.781 127.188H191.742V125.781H190.055V134ZM197.922 134H199.758L200.797 130.953H205.141L206.172 134H208.008L203.914 122.727H202.023L197.922 134ZM202.953 124.594H202.984L204.664 129.547H201.266L202.953 124.594ZM212.367 134.164C214.344 134.164 215.719 132.898 215.898 131.25L215.906 131.195H214.281L214.273 131.258C214.07 132.148 213.406 132.75 212.367 132.75C211.062 132.75 210.195 131.695 210.195 129.898V129.891C210.195 128.133 211.047 127.039 212.359 127.039C213.461 127.039 214.086 127.719 214.266 128.523L214.281 128.586H215.891L215.883 128.531C215.742 126.984 214.461 125.625 212.344 125.625C210 125.625 208.469 127.273 208.469 129.875V129.883C208.469 132.516 209.969 134.164 212.367 134.164ZM220.633 134.164C222.609 134.164 223.984 132.898 224.164 131.25L224.172 131.195H222.547L222.539 131.258C222.336 132.148 221.672 132.75 220.633 132.75C219.328 132.75 218.461 131.695 218.461 129.898V129.891C218.461 128.133 219.312 127.039 220.625 127.039C221.727 127.039 222.352 127.719 222.531 128.523L222.547 128.586H224.156L224.148 128.531C224.008 126.984 222.727 125.625 220.609 125.625C218.266 125.625 216.734 127.273 216.734 129.875V129.883C216.734 132.516 218.234 134.164 220.633 134.164ZM228.898 134.164C231.25 134.164 232.797 132.539 232.797 129.891V129.875C232.797 127.242 231.234 125.625 228.891 125.625C226.555 125.625 225 127.25 225 129.875V129.891C225 132.531 226.539 134.164 228.898 134.164ZM228.906 132.75C227.586 132.75 226.727 131.711 226.727 129.891V129.875C226.727 128.078 227.594 127.039 228.891 127.039C230.211 127.039 231.07 128.078 231.07 129.875V129.891C231.07 131.703 230.227 132.75 228.906 132.75ZM236.898 134.164C238.148 134.164 238.984 133.594 239.414 132.766H239.453V134H241.148V125.781H239.453V130.578C239.453 131.859 238.688 132.711 237.5 132.711C236.328 132.711 235.75 132.023 235.75 130.781V125.781H234.062V131.109C234.062 133 235.094 134.164 236.898 134.164ZM242.82 134H244.508V129.211C244.508 127.93 245.273 127.07 246.461 127.07C247.633 127.07 248.211 127.766 248.211 129V134H249.906V128.68C249.906 126.789 248.867 125.625 247.062 125.625C245.82 125.625 244.977 126.188 244.547 127.023H244.508V125.781H242.82V134ZM254.422 134.164C254.766 134.164 255.086 134.125 255.281 134.094V132.789C255.156 132.805 255.008 132.82 254.828 132.82C254.117 132.82 253.742 132.57 253.742 131.734V127.125H255.281V125.781H253.742V123.641H252.016V125.781H250.836V127.125H252.016V131.836C252.016 133.477 252.797 134.164 254.422 134.164Z" fill="#3D3F4C"/>
<path d="M158.164 151H159.535L160.9 148.732H160.93L162.295 151H163.689L161.686 147.883L163.713 144.836H162.312L160.988 147.068H160.959L159.617 144.836H158.193L160.203 147.924L158.164 151ZM164.047 151H165.418L166.783 148.732H166.812L168.178 151H169.572L167.568 147.883L169.596 144.836H168.195L166.871 147.068H166.842L165.5 144.836H164.076L166.086 147.924L164.047 151ZM169.93 151H171.301L172.666 148.732H172.695L174.061 151H175.455L173.451 147.883L175.479 144.836H174.078L172.754 147.068H172.725L171.383 144.836H169.959L171.969 147.924L169.93 151ZM175.812 151H177.184L178.549 148.732H178.578L179.943 151H181.338L179.334 147.883L181.361 144.836H179.961L178.637 147.068H178.607L177.266 144.836H175.842L177.852 147.924L175.812 151ZM188.363 151.141C190.232 151.141 191.633 150.01 191.896 148.328L191.902 148.27H190.602L190.584 148.322C190.268 149.395 189.488 149.98 188.363 149.98C186.799 149.98 185.785 148.727 185.785 146.77V146.764C185.785 144.807 186.793 143.564 188.363 143.564C189.5 143.564 190.285 144.168 190.566 145.158L190.602 145.275H191.902L191.891 145.223C191.627 143.553 190.227 142.404 188.363 142.404C185.967 142.404 184.443 144.08 184.443 146.764V146.77C184.443 149.453 185.967 151.141 188.363 151.141ZM193.092 151H194.404V147.461H198.037V146.354H194.404V143.676H198.371V142.545H193.092V151ZM198.992 151H200.445L202.566 147.771H202.613L204.723 151H206.258L203.445 146.793V146.77L206.311 142.545H204.828L202.73 145.82H202.678L200.586 142.545H199.021L201.805 146.729V146.746L198.992 151Z" fill="#898D9A"/>
</g>
</g>
</g>
<defs>
<linearGradient id="paint0_linear_9497_11435" x1="240" y1="161" x2="240" y2="170.5" gradientUnits="userSpaceOnUse">
<stop stop-color="#B6C2FF"/>
<stop offset="1" stop-color="#BAC3EF" stop-opacity="0"/>
</linearGradient>
<linearGradient id="paint1_linear_9497_11435" x1="240.5" y1="30" x2="240.9" y2="173.158" gradientUnits="userSpaceOnUse">
<stop stop-color="#F2F4FF"/>
<stop offset="1" stop-color="white"/>
</linearGradient>
</defs>
</svg>
