<svg width="20" height="20" viewBox="0 0 20 20" fill="none" xmlns="http://www.w3.org/2000/svg">
<path d="M10 12C11.1046 12 12 11.1046 12 10C12 8.89543 11.1046 8 10 8C8.89543 8 8 8.89543 8 10C8 11.1046 8.89543 12 10 12Z" stroke="#A9ABB2" stroke-width="1.4" stroke-linecap="round" stroke-linejoin="round"/>
<path d="M15.3818 12.1818C15.285 12.4012 15.2561 12.6445 15.2989 12.8804C15.3417 13.1164 15.4542 13.3341 15.6218 13.5055L15.6655 13.5491C15.8007 13.6842 15.908 13.8446 15.9812 14.0212C16.0544 14.1978 16.0921 14.387 16.0921 14.5782C16.0921 14.7693 16.0544 14.9586 15.9812 15.1352C15.908 15.3118 15.8007 15.4722 15.6655 15.6073C15.5304 15.7425 15.3699 15.8498 15.1934 15.923C15.0168 15.9962 14.8275 16.0339 14.6364 16.0339C14.4452 16.0339 14.2559 15.9962 14.0794 15.923C13.9028 15.8498 13.7424 15.7425 13.6073 15.6073L13.5636 15.5636C13.3922 15.396 13.1745 15.2835 12.9386 15.2407C12.7027 15.1979 12.4594 15.2268 12.24 15.3236C12.0249 15.4158 11.8414 15.5689 11.7122 15.764C11.583 15.9591 11.5137 16.1878 11.5127 16.4218V16.5455C11.5127 16.9312 11.3595 17.3012 11.0867 17.574C10.8139 17.8468 10.444 18 10.0582 18C9.67241 18 9.30244 17.8468 9.02966 17.574C8.75688 17.3012 8.60364 16.9312 8.60364 16.5455V16.48C8.59801 16.2393 8.52009 16.0058 8.38001 15.81C8.23993 15.6141 8.04417 15.4649 7.81818 15.3818C7.59882 15.285 7.3555 15.2561 7.11957 15.2989C6.88365 15.3417 6.66595 15.4542 6.49455 15.6218L6.45091 15.6655C6.31582 15.8007 6.1554 15.908 5.97882 15.9812C5.80224 16.0544 5.61297 16.0921 5.42182 16.0921C5.23067 16.0921 5.04139 16.0544 4.86481 15.9812C4.68824 15.908 4.52782 15.8007 4.39273 15.6655C4.25749 15.5304 4.1502 15.3699 4.077 15.1934C4.00381 15.0168 3.96613 14.8275 3.96613 14.6364C3.96613 14.4452 4.00381 14.2559 4.077 14.0794C4.1502 13.9028 4.25749 13.7424 4.39273 13.6073L4.43636 13.5636C4.60403 13.3922 4.7165 13.1745 4.75928 12.9386C4.80205 12.7027 4.77317 12.4594 4.67636 12.24C4.58417 12.0249 4.43109 11.8414 4.23597 11.7122C4.04085 11.583 3.81221 11.5137 3.57818 11.5127H3.45455C3.06878 11.5127 2.69881 11.3595 2.42603 11.0867C2.15325 10.8139 2 10.444 2 10.0582C2 9.67241 2.15325 9.30244 2.42603 9.02966C2.69881 8.75688 3.06878 8.60364 3.45455 8.60364H3.52C3.76072 8.59801 3.99419 8.52009 4.19004 8.38001C4.38589 8.23993 4.53507 8.04417 4.61818 7.81818C4.71499 7.59882 4.74387 7.3555 4.70109 7.11957C4.65832 6.88365 4.54585 6.66595 4.37818 6.49455L4.33455 6.45091C4.19931 6.31582 4.09202 6.1554 4.01882 5.97882C3.94562 5.80224 3.90795 5.61297 3.90795 5.42182C3.90795 5.23067 3.94562 5.04139 4.01882 4.86481C4.09202 4.68824 4.19931 4.52782 4.33455 4.39273C4.46963 4.25749 4.63005 4.1502 4.80663 4.077C4.98321 4.00381 5.17249 3.96613 5.36364 3.96613C5.55479 3.96613 5.74406 4.00381 5.92064 4.077C6.09722 4.1502 6.25764 4.25749 6.39273 4.39273L6.43636 4.43636C6.60777 4.60403 6.82547 4.7165 7.06139 4.75928C7.29731 4.80205 7.54064 4.77317 7.76 4.67636H7.81818C8.03329 4.58417 8.21674 4.43109 8.34596 4.23597C8.47518 4.04085 8.54452 3.81221 8.54545 3.57818V3.45455C8.54545 3.06878 8.6987 2.69881 8.97148 2.42603C9.24426 2.15325 9.61423 2 10 2C10.3858 2 10.7557 2.15325 11.0285 2.42603C11.3013 2.69881 11.4545 3.06878 11.4545 3.45455V3.52C11.4555 3.75403 11.5248 3.98267 11.654 4.17779C11.7833 4.37291 11.9667 4.52599 12.1818 4.61818C12.4012 4.71499 12.6445 4.74387 12.8804 4.70109C13.1164 4.65832 13.3341 4.54585 13.5055 4.37818L13.5491 4.33455C13.6842 4.19931 13.8446 4.09202 14.0212 4.01882C14.1978 3.94562 14.387 3.90795 14.5782 3.90795C14.7693 3.90795 14.9586 3.94562 15.1352 4.01882C15.3118 4.09202 15.4722 4.19931 15.6073 4.33455C15.7425 4.46963 15.8498 4.63005 15.923 4.80663C15.9962 4.98321 16.0339 5.17249 16.0339 5.36364C16.0339 5.55479 15.9962 5.74406 15.923 5.92064C15.8498 6.09722 15.7425 6.25764 15.6073 6.39273L15.5636 6.43636C15.396 6.60777 15.2835 6.82547 15.2407 7.06139C15.1979 7.29731 15.2268 7.54064 15.3236 7.76V7.81818C15.4158 8.03329 15.5689 8.21674 15.764 8.34596C15.9591 8.47518 16.1878 8.54452 16.4218 8.54545H16.5455C16.9312 8.54545 17.3012 8.6987 17.574 8.97148C17.8468 9.24426 18 9.61423 18 10C18 10.3858 17.8468 10.7557 17.574 11.0285C17.3012 11.3013 16.9312 11.4545 16.5455 11.4545H16.48C16.246 11.4555 16.0173 11.5248 15.8222 11.654C15.6271 11.7833 15.474 11.9667 15.3818 12.1818V12.1818Z" stroke="#3D3F4C" stroke-width="1.4" stroke-linecap="round" stroke-linejoin="round"/>
</svg>
