<svg width="12" height="12" viewBox="0 0 12 12" fill="none" xmlns="http://www.w3.org/2000/svg">
<circle cx="6" cy="6" r="6" fill="#7789D3"/>
<g clip-path="url(#clip0)">
<path d="M7.00016 4.33331H8.00016C8.21903 4.33331 8.43576 4.37642 8.63797 4.46018C8.84018 4.54394 9.02391 4.6667 9.17867 4.82147C9.33344 4.97623 9.4562 5.15996 9.53996 5.36217C9.62372 5.56438 9.66683 5.78111 9.66683 5.99998C9.66683 6.21885 9.62372 6.43558 9.53996 6.63779C9.4562 6.83999 9.33344 7.02373 9.17867 7.17849C9.02391 7.33326 8.84018 7.45602 8.63797 7.53978C8.43576 7.62354 8.21903 7.66665 8.00016 7.66665H7.00016M5.00016 7.66665H4.00016C3.78129 7.66665 3.56457 7.62354 3.36236 7.53978C3.16015 7.45602 2.97642 7.33326 2.82165 7.17849C2.50909 6.86593 2.3335 6.44201 2.3335 5.99998C2.3335 5.55795 2.50909 5.13403 2.82165 4.82147C3.13421 4.50891 3.55814 4.33331 4.00016 4.33331H5.00016" stroke="white" stroke-width="0.8" stroke-linecap="round" stroke-linejoin="round"/>
<path d="M4.6665 6H7.33317" stroke="white" stroke-width="0.8" stroke-linecap="round" stroke-linejoin="round"/>
</g>
<defs>
<clipPath id="clip0">
<rect width="8" height="8" fill="white" transform="translate(2 2)"/>
</clipPath>
</defs>
</svg>
