<svg width="372" height="600" viewBox="0 0 372 600" fill="none" xmlns="http://www.w3.org/2000/svg">
<mask id="mask0_10096_20563" style="mask-type:alpha" maskUnits="userSpaceOnUse" x="0" y="0" width="372" height="600">
<rect width="372" height="600" fill="#C4C4C4"/>
</mask>
<g mask="url(#mask0_10096_20563)">
<g opacity="0.1">
<path fill-rule="evenodd" clip-rule="evenodd" d="M176.381 567.097C194.721 600.785 170.939 653.354 167.316 691.539C163.759 729.028 311.773 722.505 291.789 754.423C268.994 790.829 127.284 815.258 82.4614 791.033C40.2235 805.604 30.3388 975.516 -70.0523 865.186C-107.881 823.612 -60.4093 781.321 -88.5716 749.034C-107.012 727.893 -184.102 680.016 -161.992 651.978C-139.881 623.94 -86.9715 631.378 -72.2133 596.684C-57.5013 562.098 -71.9203 487.029 -31.9833 476.054C8.30371 464.984 15.5177 538.889 53.1197 557.102C88.6635 574.317 157.498 532.41 176.381 567.097Z" stroke="url(#paint0_linear_10096_20563)" stroke-width="2.3571"/>
<path fill-rule="evenodd" clip-rule="evenodd" d="M166.273 588.887C183.527 620.581 153.798 660.318 150.389 696.244C147.043 731.515 293.653 735.1 274.851 765.129C253.405 799.381 120.08 822.364 77.9096 799.573C38.1708 813.282 35.1465 947.449 -59.3783 864.209C-91.812 840.275 -52.0564 767.118 -81.4898 741.47C-110.923 715.823 -141.515 699.464 -152.079 668.746C-153.934 633.322 -87.9583 645.78 -67.6132 616.723C-45.2634 584.803 -67.2776 504.292 -29.7037 493.967C8.1996 483.551 19.4566 559.259 54.8338 576.394C88.2744 592.591 148.506 556.253 166.273 588.887Z" stroke="url(#paint1_linear_10096_20563)" stroke-width="2.3571"/>
<path fill-rule="evenodd" clip-rule="evenodd" d="M155.311 599.127C172.566 630.821 139.348 673.016 135.94 708.942C132.593 744.213 302.158 750.563 283.356 780.592C261.909 814.844 128.585 837.827 86.4141 815.036C46.6753 828.745 49.5185 940.483 -45.0063 857.243C-77.44 833.309 -45.0342 784.554 -62.307 748.134C-76.8014 717.572 -109.541 714.992 -133.099 677.758C-156.657 640.525 -79.4538 661.243 -59.1086 632.186C-36.7589 600.266 -58.7731 519.755 -21.1991 509.43C2.16832 503.008 16.4765 576.431 58.2386 594.043C93.2164 608.794 137.545 566.493 155.311 599.127Z" stroke="url(#paint2_linear_10096_20563)" stroke-width="2.3571"/>
<path fill-rule="evenodd" clip-rule="evenodd" d="M148.495 608.318C165.75 640.012 127.247 679.403 123.838 715.329C120.492 750.6 304.475 769.106 285.673 799.135C264.226 833.387 130.902 856.37 88.7308 833.579C48.992 847.288 56.0597 938.952 -38.4651 855.712C-70.8988 831.778 -32.2246 789.149 -49.4975 752.728C-63.9919 722.167 -110.231 695.674 -120.373 674.115C-130.516 652.556 -68.638 666.262 -48.2928 637.205C-25.9431 605.284 -56.4563 538.298 -18.8824 527.973C4.48507 521.551 15.448 589.542 57.21 607.155C92.1878 621.906 130.729 575.684 148.495 608.318Z" stroke="url(#paint3_linear_10096_20563)" stroke-width="2.3571"/>
<path fill-rule="evenodd" clip-rule="evenodd" d="M142.799 619.306C155.411 647.854 116.463 688.711 113.054 724.637C109.708 759.908 306.322 788.005 287.52 818.034C266.074 852.286 132.749 875.269 90.5786 852.478C50.8398 866.187 -7.0244 906.701 -36.6175 874.611C-66.2105 842.521 -18.6253 771.565 -39.7188 744.28C-60.8123 716.995 -96.0333 697.066 -104.645 679.377C-113.257 661.689 -65.142 671.903 -46.4451 656.104C-12.7023 627.59 -54.6086 557.197 -17.0347 546.872C6.33277 540.451 15.443 604.511 57.2051 622.123C92.1829 636.875 125.033 586.672 142.799 619.306Z" stroke="url(#paint4_linear_10096_20563)" stroke-width="2.3571"/>
<path fill-rule="evenodd" clip-rule="evenodd" d="M134.209 627.295C149.962 656.231 104.757 699.623 101.645 732.423C106.161 761.968 284.074 788.582 266.908 815.998C247.328 847.27 125.604 868.253 87.1031 847.445C50.8221 859.961 57.2748 943.649 -29.025 867.652C-58.6365 845.8 -12.6519 775.64 -28.4218 742.389C-41.655 714.486 -89.8122 695.903 -89.9622 682.983C-90.1122 670.064 -55.284 680.263 -37.9976 668.158C-3.1762 643.774 -46.2893 571.922 -11.9957 562.456C-1.92285 559.675 13.0782 609.441 49.2657 629.511C83.372 648.426 117.988 597.5 134.209 627.295Z" stroke="url(#paint5_linear_10096_20563)" stroke-width="2.3571"/>
<path fill-rule="evenodd" clip-rule="evenodd" d="M126.977 635.484C140.853 660.973 94.0837 701.635 93.9509 729.611C84.7898 760.188 228.543 778.713 213.422 802.862C204.617 816.924 115.055 849.258 81.141 830.929C49.1826 841.955 15.4776 894.839 -21.4203 855.188C-47.5039 835.939 -6.72917 767.68 -20.6202 738.39C-32.2768 713.812 -74.961 693.158 -74.8286 686.062C-74.6963 678.966 -44.282 683.665 -29.0551 673.003C1.61763 651.524 -36.359 588.233 -6.1511 579.894C2.72168 577.445 15.9355 621.282 47.8116 638.96C77.8545 655.622 112.689 609.239 126.977 635.484Z" stroke="url(#paint6_linear_10096_20563)" stroke-width="2.3571"/>
<path fill-rule="evenodd" clip-rule="evenodd" d="M120.911 642.957C129.166 669.356 67.4813 712.152 95.0847 747.446C118.757 769.904 231.788 796.691 216.667 820.84C207.863 834.902 118.3 867.237 84.3862 848.908C52.4278 859.933 18.7227 912.818 -18.1753 873.166C-44.2589 853.918 2.1117 766.263 -11.7794 736.973C-23.4359 712.395 -62.2736 695.748 -57.9134 690.551C-53.5532 685.354 -32.5498 688.463 -19.8965 679.596C6.79914 660.889 -23.3186 610.657 -3.70879 594.844C3.4564 589.066 15.135 628.192 47.0111 645.87C77.0539 662.532 107.329 620.906 120.911 642.957Z" stroke="url(#paint7_linear_10096_20563)" stroke-width="2.3571"/>
<path fill-rule="evenodd" clip-rule="evenodd" d="M112.787 647.962C121.04 667.426 77.0575 698.251 79.2318 730.822C82.217 775.54 183.359 786.454 180.323 796.845C176.597 809.594 101.574 833.988 74.4234 819.315C48.8387 828.141 21.8558 870.479 -7.68326 838.735C-28.5648 823.326 8.5576 753.153 -2.56305 729.705C-11.8948 710.028 -42.6149 700.592 -39.1243 696.431C-35.6337 692.271 -18.776 692.011 -9.06134 683.771C10.8396 666.89 -13.7911 612.264 -1.08156 612.972C11.628 613.68 17.4755 637.556 42.9943 651.708C67.0454 665.047 103.165 636.422 112.787 647.962Z" stroke="url(#paint8_linear_10096_20563)" stroke-width="2.3571"/>
<path fill-rule="evenodd" clip-rule="evenodd" d="M104.454 655.225C116.066 661.946 66.5509 702.065 72.4248 728.849C87.5243 797.701 161.967 775.417 159.395 784.218C156.24 795.015 92.7039 815.674 69.7106 803.247C48.0434 810.722 25.192 846.577 0.175874 819.694C-17.5083 806.644 13.93 747.215 4.51207 727.357C-3.39086 710.694 -29.4071 702.702 -26.451 699.179C-23.4949 695.655 -9.21838 695.435 -0.991229 688.457C15.8625 674.16 -2.55176 634.731 6.75222 630.022C12.3203 627.204 21.4823 649.318 43.0938 661.304C63.4623 672.6 92.842 648.505 104.454 655.225Z" stroke="url(#paint9_linear_10096_20563)" stroke-width="2.3571"/>
</g>
<ellipse cx="176.21" cy="47" rx="407.242" ry="230" fill="#26244B"/>
<circle opacity="0.1" cx="238" cy="32" r="89" fill="url(#paint10_linear_10096_20563)"/>
<circle opacity="0.08" cx="339" cy="116" r="53" fill="url(#paint11_linear_10096_20563)"/>
<path opacity="0.1" d="M586.5 -174.5C586.5 -51.3619 481.98 48.5 353 48.5C224.02 48.5 119.5 -51.3619 119.5 -174.5C119.5 -297.638 224.02 -397.5 353 -397.5C481.98 -397.5 586.5 -297.638 586.5 -174.5Z" stroke="white"/>
</g>
<defs>
<linearGradient id="paint0_linear_10096_20563" x1="-28.4581" y1="462.806" x2="97.428" y2="849.613" gradientUnits="userSpaceOnUse">
<stop stop-color="#3278FF"/>
<stop offset="1" stop-color="#FF602E"/>
</linearGradient>
<linearGradient id="paint1_linear_10096_20563" x1="-28.5795" y1="482.875" x2="88.4875" y2="854.263" gradientUnits="userSpaceOnUse">
<stop stop-color="#3278FF"/>
<stop offset="1" stop-color="#FF602E"/>
</linearGradient>
<linearGradient id="paint2_linear_10096_20563" x1="-15.786" y1="495.697" x2="96.4333" y2="867.31" gradientUnits="userSpaceOnUse">
<stop stop-color="#3278FF"/>
<stop offset="1" stop-color="#FF602E"/>
</linearGradient>
<linearGradient id="paint3_linear_10096_20563" x1="-9.54251" y1="511.715" x2="98.1271" y2="883.517" gradientUnits="userSpaceOnUse">
<stop stop-color="#3278FF"/>
<stop offset="1" stop-color="#FF602E"/>
</linearGradient>
<linearGradient id="paint4_linear_10096_20563" x1="-7.16038" y1="530.413" x2="99.8063" y2="902.122" gradientUnits="userSpaceOnUse">
<stop stop-color="#3278FF"/>
<stop offset="1" stop-color="#FF602E"/>
</linearGradient>
<linearGradient id="paint5_linear_10096_20563" x1="-5.32704" y1="548.861" x2="92.7411" y2="893.343" gradientUnits="userSpaceOnUse">
<stop stop-color="#3278FF"/>
<stop offset="1" stop-color="#FF602E"/>
</linearGradient>
<linearGradient id="paint6_linear_10096_20563" x1="-7.55834" y1="572.763" x2="76.0963" y2="861.67" gradientUnits="userSpaceOnUse">
<stop stop-color="#3278FF"/>
<stop offset="1" stop-color="#FF602E"/>
</linearGradient>
<linearGradient id="paint7_linear_10096_20563" x1="-6.86947" y1="589.554" x2="75.9005" y2="880.639" gradientUnits="userSpaceOnUse">
<stop stop-color="#3278FF"/>
<stop offset="1" stop-color="#FF602E"/>
</linearGradient>
<linearGradient id="paint8_linear_10096_20563" x1="4.60955" y1="602.818" x2="74.6474" y2="842.159" gradientUnits="userSpaceOnUse">
<stop stop-color="#3278FF"/>
<stop offset="1" stop-color="#FF602E"/>
</linearGradient>
<linearGradient id="paint9_linear_10096_20563" x1="14.0282" y1="620.561" x2="74.5066" y2="821.025" gradientUnits="userSpaceOnUse">
<stop stop-color="#3278FF"/>
<stop offset="1" stop-color="#FF602E"/>
</linearGradient>
<linearGradient id="paint10_linear_10096_20563" x1="308.386" y1="8.73203" x2="185.327" y2="4.30102" gradientUnits="userSpaceOnUse">
<stop stop-color="white"/>
<stop offset="1" stop-color="white" stop-opacity="0"/>
</linearGradient>
<linearGradient id="paint11_linear_10096_20563" x1="376.049" y1="93.3592" x2="307.633" y2="99.5051" gradientUnits="userSpaceOnUse">
<stop stop-color="white"/>
<stop offset="1" stop-color="white" stop-opacity="0"/>
</linearGradient>
</defs>
</svg>
