<svg width="20" height="20" viewBox="0 0 20 20" fill="none" xmlns="http://www.w3.org/2000/svg">
<path d="M16.4167 10C17.1142 10.6926 17.5 11.6103 17.5 12.6168C17.5 13.7001 17.0531 14.6805 16.2517 15.3881L16.5824 17.5L14.656 16.2698C14.1338 16.4336 13.5496 16.5234 12.912 16.5234C10.6154 16.5234 9.01275 15.3596 8.5 13.7597V13.7597" stroke="#A9ABB2" stroke-width="1.4" stroke-linecap="round" stroke-linejoin="round"/>
<path fill-rule="evenodd" clip-rule="evenodd" d="M6.91665 13.4655L3.925 15.25L4.43857 12.1866C3.19401 11.1601 2.5 9.73808 2.5 8.16667C2.5 5.03705 5.25275 2.5 9.625 2.5C13.9973 2.5 16.75 5.03705 16.75 8.16667C16.75 11.2963 13.9973 13.8333 9.625 13.8333C8.63475 13.8333 7.72758 13.7032 6.91665 13.4655Z" stroke="#3D3F4C" stroke-width="1.4" stroke-linecap="round" stroke-linejoin="round"/>
</svg>
