<svg width="320" height="90" viewBox="0 0 320 90" fill="none" xmlns="http://www.w3.org/2000/svg">
<mask id="mask0" style="mask-type:alpha" maskUnits="userSpaceOnUse" x="0" y="0" width="320" height="90">
<path d="M0 12C0 5.37258 5.37258 0 12 0H308C314.627 0 320 5.37258 320 12V90H0V12Z" fill="white"/>
</mask>
<g mask="url(#mask0)">
<rect width="320" height="90" fill="url(#paint0_linear)"/>
<path d="M377.471 3.28125C377.471 43.3529 344.843 75.9375 304.471 75.9375C264.099 75.9375 231.471 43.3529 231.471 3.28125C231.471 -36.7904 264.099 -69.375 304.471 -69.375C344.843 -69.375 377.471 -36.7904 377.471 3.28125Z" stroke="url(#paint1_linear)" stroke-width="30"/>
<path d="M65.6176 -4.21875C65.6176 26.8875 40.2888 52.1875 8.94112 52.1875C-22.4066 52.1875 -47.7354 26.8875 -47.7354 -4.21875C-47.7354 -35.325 -22.4066 -60.625 8.94112 -60.625C40.2888 -60.625 65.6176 -35.325 65.6176 -4.21875Z" stroke="url(#paint2_linear)" stroke-opacity="0.6" stroke-width="25"/>
</g>
<defs>
<linearGradient id="paint0_linear" x1="160" y1="18.2813" x2="160" y2="78.75" gradientUnits="userSpaceOnUse">
<stop stop-color="#F4F5F7"/>
<stop offset="1" stop-color="#F4F5F7" stop-opacity="0"/>
</linearGradient>
<linearGradient id="paint1_linear" x1="300.458" y1="-54.099" x2="303.848" y2="90.952" gradientUnits="userSpaceOnUse">
<stop stop-color="#D9DBE2"/>
<stop offset="1" stop-color="#EDEFF2" stop-opacity="0.07"/>
</linearGradient>
<linearGradient id="paint2_linear" x1="5.14485" y1="23.5118" x2="8.91176" y2="64.6902" gradientUnits="userSpaceOnUse">
<stop stop-color="#EAECEF"/>
<stop offset="1" stop-color="#EAECEF" stop-opacity="0"/>
</linearGradient>
</defs>
</svg>
