<svg width="20" height="20" viewBox="0 0 20 20" fill="none" xmlns="http://www.w3.org/2000/svg">
<rect x="2.3665" y="3.2" width="15.2667" height="11.1" rx="1.3" stroke="#3D3F4C" stroke-width="1.4" stroke-linecap="round"/>
<path d="M4 17L16 17" stroke="#3D3F4C" stroke-width="1.4" stroke-linecap="round"/>
<path d="M5.87474 11H6.55026L7.15938 8.31947H7.17312L7.77994 11H8.45546L9.33249 7H8.61575L8.09137 9.86625H8.07763L7.46851 7H6.86169L6.25258 9.86625H6.23884L5.71674 7H5L5.87474 11Z" fill="#A9ABB2"/>
<path d="M9.70575 11H11.8949V10.3098H10.3973V9.30353H11.8102V8.64934H10.3973V7.69023H11.8949V7H9.70575V11Z" fill="#A9ABB2"/>
<path d="M12.3941 11H13.8573C14.5626 11 15 10.562 15 9.86071V9.85516C15 9.33125 14.668 8.93763 14.2077 8.89605V8.87942C14.5718 8.82121 14.8466 8.44699 14.8466 8.00901V8.00347C14.8466 7.38808 14.455 7 13.8322 7H12.3941V11ZM13.6535 7.62093C13.9764 7.62093 14.1665 7.80388 14.1665 8.12266V8.12821C14.1665 8.47471 13.9581 8.67152 13.5688 8.67152H13.0856V7.62093H13.6535ZM13.6512 9.23978C14.0749 9.23978 14.2947 9.43659 14.2947 9.80249V9.80804C14.2947 10.1795 14.0772 10.3763 13.681 10.3763H13.0856V9.23978H13.6512Z" fill="#A9ABB2"/>
</svg>
