<svg width="180" height="114" viewBox="0 0 180 114" fill="none" xmlns="http://www.w3.org/2000/svg">
<path d="M5.6526 84.551C3.31848 100.614 44.4772 94.951 64.988 92.5919C65.3437 95.3267 75.451 91.2307 80.0002 90.639C84.5493 90.0472 108.857 91.9838 132.552 96.3177C156.246 100.652 163.25 79.8093 157.475 74.5348C151.7 69.2603 118.472 69.8747 117.76 64.4051C117.049 58.9355 150.514 60.1442 163.707 58.4281C176.899 56.7119 182.658 26.2977 143.733 25.7991C104.809 25.3005 90.7637 48.9129 70.8261 55.6781C50.8885 62.4434 25.6242 31.5001 22.1242 47.0001C18.7997 61.7227 41.6242 63.0002 33.6007 75.3532C31.0522 79.2768 7.84942 69.4327 5.6526 84.551Z" fill="#F5F5FD"/>
<path d="M67.5932 71.542L74.8041 71L78 84.8372L57.3776 85.8364C55.5392 85.9254 54 84.459 54 82.6184C54 81.894 54.24›42 81.1907 54.693 80.6221L57.7137 76.796C60.1267 73.7395 63.71 71.8339 67.5932 71.542Z" fill="#DDA29D"/>
<path d="M52.8162 81.3915L76.4283 77.5L79.6243 91.3372L39.2702 94.3054C37.8414 94.4105 36.6243 93.2796 36.6243 91.8469C36.6243 90.7522 37.3462 89.7887 38.3968 89.4811L52.3135 85.407L51.6813 84.7317C50.589 83.5648 51.2391 81.6514 52.8162 81.3915Z" fill="#E7AFAA"/>
<path d="M61.6243 55.4967V73.5L65.1243 75H74.1243L76.6243 93.5L129.234 90.0502C134.693 89.6922 139.905 87.6473 144.15 84.1981C150.16 79.3146 153.722 72.0377 153.893 64.2953L153.91 63.4955C154.326 44.5592 141.416 27.9223 122.969 23.624L109.427 20.4685C105.253 19.496 100.949 19.2097 96.6829 19.6209L93.9711 19.8822C75.6253 21.6505 61.6243 37.0659 61.6243 55.4967Z" fill="#44D7B6"/>
<path d="M75.6243 75.5C87.9276 72.6667 113.343 66.1 116.579 62.5C119.815 58.9 120.624 48.3333 120.624 43.5" stroke="#2DC9A6"/>
<path fill-rule="evenodd" clip-rule="evenodd" d="M105.624 16.2083C107.466 14.5604 108.624 12.1655 108.624 9.5C108.624 4.52944 104.595 0.5 99.6243 0.5C95.3316 0.5 91.7409 3.5053 90.8413 7.52666C90.1481 7.65899 89.6243 8.26831 89.6243 9C89.6243 9.67074 90.0645 10.2386 90.6718 10.4305C91.0687 14.2947 93.9103 17.4342 97.6243 18.277V23.5C97.6243 25.7091 99.4151 27.5 101.624 27.5C103.833 27.5 105.624 25.7091 105.624 23.5V16.2083Z" fill="#E7AFAA"/>
<path d="M99.6243 6C95.6243 4.8 94.2909 2.16667 94.1243 1C94.9576 0.666667 97.4243 0 100.624 0C104.624 0 109.124 1 110.124 7C110.924 11.8 108.458 14.6667 107.124 15.5C106.458 15.5 104.924 15.1 104.124 13.5C103.124 11.5 104.624 10 105.124 8.5C105.624 7 104.624 7.5 99.6243 6Z" fill="#613541"/>
<path d="M33.6243 46.5C33.6243 43.1863 36.3106 40.5 39.6243 40.5H70.6243C73.938 40.5 76.6243 43.1863 76.6243 46.5V63.5C76.6243 66.8137 73.938 69.5 70.6243 69.5H55.4956C55.2489 69.5 55.0031 69.5294 54.7634 69.5875L42.8877 72.4664C42.0046 72.6805 41.4796 71.5137 42.2255 70.9948C42.8854 70.5357 42.5606 69.5 41.7568 69.5H38.8354C35.9574 69.5 33.6243 67.1669 33.6243 64.2888V46.5Z" fill="#FF7A5C"/>
<path d="M54.8164 48.5C53.5238 48.5 52.5107 48.875 51.7596 49.625C50.9911 50.375 50.6243 51.4107 50.6243 52.7321H52.6155C52.6155 51.9643 52.7553 51.375 53.0522 50.9643C53.4016 50.4821 53.943 50.25 54.6941 50.25C55.288 50.25 55.7596 50.4107 56.0915 50.75C56.4059 51.0893 56.5806 51.5536 56.5806 52.1429C56.5806 52.5893 56.4234 53.0179 56.109 53.4107L55.8994 53.6607C54.764 54.6964 54.0828 55.4464 53.8557 55.9286C53.6112 56.4107 53.5064 57 53.5064 57.6786V57.9286H55.5151V57.6786C55.5151 57.25 55.6024 56.8571 55.7771 56.5C55.9343 56.1786 56.1614 55.875 56.4758 55.625C57.3142 54.875 57.8208 54.3929 57.978 54.2143C58.3972 53.6429 58.6243 52.9107 58.6243 52.0179C58.6243 50.9286 58.2749 50.0714 57.5762 49.4464C56.8775 48.8036 55.9518 48.5 54.8164 48.5ZM54.502 58.8036C54.1177 58.8036 53.8033 58.9286 53.5588 59.1786C53.2793 59.4286 53.157 59.75 53.157 60.1429C53.157 60.5357 53.2793 60.8571 53.5588 61.1071C53.8033 61.3571 54.1177 61.5 54.502 61.5C54.8863 61.5 55.2007 61.375 55.4802 61.125C55.7247 60.875 55.8644 60.5357 55.8644 60.1429C55.8644 59.75 55.7247 59.4286 55.4802 59.1786C55.2182 58.9286 54.8863 58.8036 54.502 58.8036Z" fill="white"/>
<rect x="73.6243" y="75.0286" width="4" height="18.5818" transform="rotate(-7.594 73.6243 75.0286)" fill="#2DC9A6"/>
<circle cx="94.6243" cy="7.5" r="1" fill="#DA8982"/>
</svg>
