<svg width="24" height="24" viewBox="0 0 24 24" fill="none" xmlns="http://www.w3.org/2000/svg">
<mask id="mask0_5935:13850" style="mask-type:alpha" maskUnits="userSpaceOnUse" x="0" y="0" width="24" height="24">
<rect width="24" height="24" fill="#C4C4C4"/>
</mask>
<g mask="url(#mask0_5935:13850)">
<path d="M11.3888 10.8956C11.4557 10.9138 11.5199 10.9226 11.5818 10.9226C12.0111 10.9226 12.3353 10.5016 12.7959 9.90315L12.802 9.89519C12.889 9.78219 13.0019 9.63549 13.0536 9.5777C13.0835 9.55788 13.121 9.53631 13.1619 9.51162C13.4766 9.32131 14.0031 9.00279 14.0836 8.4418C14.1104 8.25415 14.1054 7.96794 14.0949 7.51665C14.0891 7.27283 14.0803 6.89272 14.0908 6.69717C14.221 6.58847 14.4953 6.40369 14.7568 6.25013L16.0811 5.8777C16.4223 5.78167 16.6211 5.42725 16.5251 5.08604C16.4293 4.74479 16.0753 4.54572 15.7336 4.64187L8.35007 4.81943C7.9998 4.87456 7.76086 5.20326 7.81602 5.5534C7.87718 5.94113 8.09156 6.87018 8.75697 7.11952C8.8224 7.14409 8.88334 7.16866 8.94225 7.19248L8.94259 7.19261C9.25738 7.31929 9.58304 7.45034 10.1297 7.45034H10.1342C10.2232 7.46814 10.418 7.65004 10.5569 7.8367C10.6286 8.21505 10.7134 8.74068 10.7134 8.93988C10.7134 9.25265 10.7705 9.59877 10.8212 9.90415L10.8232 9.9162C10.8448 10.0465 10.8657 10.173 10.8803 10.2889C10.9177 10.5879 11.1125 10.8204 11.3888 10.8956Z" fill="#C4C4C4"/>
<path d="M14.7399 19.5875C14.7906 19.5998 14.8412 19.6056 14.8911 19.6056C15.1807 19.6056 15.4437 19.4081 15.5147 19.1142L15.8537 17.7097C15.8886 17.5649 15.872 17.4123 15.8068 17.2783L14.9351 15.4866C14.8295 15.2695 14.6109 15.13 14.3692 15.1257C14.1262 15.119 13.9043 15.2531 13.791 15.4663L13.1261 16.7179L12.2019 16.8247C12.0786 16.8389 11.962 16.8887 11.8665 16.9679L10.4622 18.1302C10.1891 18.3562 10.1508 18.7608 10.3769 19.0339C10.6028 19.307 11.0077 19.345 11.2805 19.1191L14.7399 19.5875Z" fill="#C4C4C4"/>
<path d="M4.68168 13.8891C4.31989 13.8891 3.99735 13.6331 3.92626 13.2646C3.82459 12.7371 3.77295 12.1949 3.77295 11.653C3.77295 6.98135 7.57373 3.18066 12.2454 3.18066C15.9907 3.18066 19.3363 5.68973 20.3813 9.28219C20.5001 9.69062 20.2652 10.1181 19.8568 10.2368C19.4484 10.3557 19.0209 10.1208 18.9021 9.71244C18.0471 6.77362 15.31 4.72109 12.2454 4.72109C8.4232 4.72109 5.31338 7.83077 5.31338 11.653C5.31338 12.0973 5.35562 12.5413 5.43887 12.9728C5.51948 13.3905 5.24619 13.7944 4.82849 13.875C4.77921 13.8845 4.73007 13.8891 4.68168 13.8891Z" fill="#A9ABB2"/>
<path d="M12.2457 20.1254C9.18763 20.1254 6.35589 18.4679 4.8558 15.7998C4.64733 15.429 4.77895 14.9594 5.14978 14.751C5.52072 14.5423 5.9902 14.674 6.19865 15.0449C7.42631 17.2284 9.74347 18.585 12.2456 18.585C15.9528 18.585 18.994 15.6873 19.1693 11.9881C19.1894 11.5633 19.5474 11.2352 19.9754 11.2553C20.4001 11.2754 20.7283 11.6363 20.7082 12.0611C20.4936 16.5831 16.7764 20.1254 12.2457 20.1254Z" fill="#A9ABB2"/>
<path d="M5.53831 15.7562C3.37383 15.7562 1.63408 15.3659 1.36707 14.217C1.2219 13.5926 1.5412 12.9453 2.31619 12.2933C2.58747 12.0652 2.99225 12.0999 3.22055 12.3713C3.44869 12.6425 3.41385 13.0474 3.14257 13.2757C2.62582 13.7104 2.61757 13.9262 2.61769 13.9282C2.81362 14.4183 6.22557 15.0452 12.7469 13.5308C19.2669 12.0159 22.0536 9.94896 22.0126 9.41894C22.0118 9.41894 21.9258 9.26123 21.4076 9.10906C21.0673 9.00914 20.8725 8.6525 20.9726 8.31238C21.0721 7.97216 21.4286 7.77733 21.7691 7.87726C22.6261 8.12885 23.1287 8.55045 23.2634 9.13023C23.8343 11.5882 16.8239 13.9013 13.0373 14.7811C11.0207 15.2496 8.00402 15.7561 5.53831 15.7562Z" fill="#A9ABB2"/>
</g>
</svg>
