<svg width="14" height="14" viewBox="0 0 14 14" fill="none" xmlns="http://www.w3.org/2000/svg">
<path fill-rule="evenodd" clip-rule="evenodd" d="M6.00017 0.577519C6.61897 0.220254 7.38136 0.220254 8.00017 0.57752L12.0623 2.92282C12.6811 3.28008 13.0623 3.94034 13.0623 4.65487V9.34547C13.0623 10.06 12.6811 10.7203 12.0623 11.0775L8.00017 13.4228C7.38136 13.7801 6.61897 13.7801 6.00017 13.4228L1.93799 11.0775C1.31919 10.7203 0.937988 10.06 0.937988 9.34547V4.65487C0.937988 3.94034 1.31919 3.28008 1.93799 2.92282L6.00017 0.577519Z" fill="#A6ACBE"/>
<path fill-rule="evenodd" clip-rule="evenodd" d="M5.90299 6.99634L6.58192 7.39312C6.6362 7.42497 6.68125 7.4707 6.71256 7.52574C6.74386 7.58078 6.76032 7.64319 6.76027 7.7067V8.15936H7.23973V7.7067C7.23968 7.64319 7.25614 7.58078 7.28744 7.52574C7.31875 7.4707 7.3638 7.42497 7.41808 7.39312L8.04806 7.02523L7.62327 6.6626L7.13041 6.95042C7.07618 6.98213 7.01468 6.99887 6.95206 6.99896C6.88915 6.99873 6.82737 6.982 6.77274 6.95042L6.28837 6.66735L5.90299 6.99634ZM5.72638 6.89313L6.11177 6.56413L5.50027 6.20676C5.44599 6.17492 5.40094 6.12918 5.36964 6.07414C5.33833 6.0191 5.32187 5.9567 5.32192 5.89318V4.40586C5.32187 4.34235 5.33833 4.27994 5.36964 4.2249C5.40094 4.16986 5.44599 4.12412 5.50027 4.09228L6.7737 3.34862C6.82801 3.31665 6.88971 3.2998 6.95253 3.2998C7.01536 3.2998 7.07706 3.31665 7.13137 3.34862L8.40384 4.09228C8.45812 4.12412 8.50317 4.16986 8.53447 4.2249C8.56578 4.27994 8.58224 4.34235 8.58219 4.40586V5.89318C8.58224 5.9567 8.56578 6.0191 8.53447 6.07414C8.50317 6.12918 8.45812 6.17492 8.40384 6.20676L7.79993 6.55943L8.22472 6.92206L8.69151 6.64946C8.74582 6.61749 8.80752 6.60065 8.87034 6.60065C8.93317 6.60065 8.99487 6.61749 9.04918 6.64946L10.3216 7.39312C10.3759 7.42497 10.421 7.4707 10.4523 7.52574C10.4836 7.58078 10.5 7.64319 10.5 7.7067V9.19402C10.5 9.25754 10.4836 9.31995 10.4523 9.37499C10.421 9.43003 10.3759 9.47576 10.3216 9.5076L9.04822 10.2513C8.99399 10.283 8.93249 10.2997 8.86986 10.2998C8.80695 10.2996 8.74518 10.2828 8.69055 10.2513L7.41808 9.5076C7.3638 9.47576 7.31875 9.43003 7.28744 9.37499C7.25614 9.31995 7.23968 9.25754 7.23973 9.19402V8.35353H6.76027V9.19402C6.76032 9.25754 6.74386 9.31995 6.71256 9.37499C6.68125 9.43003 6.6362 9.47576 6.58192 9.5076L5.30849 10.2513C5.25426 10.283 5.19276 10.2997 5.13014 10.2998C5.06723 10.2996 5.00545 10.2828 4.95082 10.2513L3.67836 9.5076C3.62408 9.47576 3.57902 9.43003 3.54772 9.37499C3.51641 9.31995 3.49996 9.25754 3.5 9.19402V7.7067C3.49996 7.64319 3.51641 7.58078 3.54772 7.52574C3.57902 7.4707 3.62408 7.42497 3.67836 7.39312L4.95178 6.64946C5.00609 6.61749 5.06779 6.60065 5.13062 6.60065C5.19344 6.60065 5.25514 6.61749 5.30945 6.64946L5.72638 6.89313ZM6.46338 9.22925C6.46944 9.21852 6.47262 9.20638 6.4726 9.19402V7.70282C6.47262 7.69035 6.46933 7.6781 6.4631 7.66734C6.45686 7.65659 6.44789 7.64772 6.43712 7.64166L5.16466 6.89703C5.15405 6.89125 5.14219 6.88822 5.13014 6.88822C5.11809 6.88822 5.10623 6.89125 5.09562 6.89703L3.82219 7.64554C3.80982 7.65317 3.80036 7.6648 3.79534 7.67855L5.03425 8.39988C5.06351 8.41699 5.0878 8.44162 5.10463 8.47128C5.12147 8.50095 5.13027 8.53459 5.13014 8.56881V10.0124C5.14219 10.0125 5.15407 10.0095 5.16466 10.0037L6.43808 9.25519C6.4486 9.24892 6.45732 9.23998 6.46338 9.22925ZM10.2031 9.22925C10.2092 9.21852 10.2123 9.20638 10.2123 9.19402V7.70282C10.2123 7.69035 10.2091 7.6781 10.2028 7.66734C10.1966 7.65659 10.1876 7.64772 10.1768 7.64166L8.90438 6.89703C8.89377 6.89125 8.88191 6.88822 8.86986 6.88822C8.85781 6.88822 8.84595 6.89125 8.83534 6.89703L7.56192 7.64554C7.54955 7.65317 7.54009 7.6648 7.53507 7.67855L8.77397 8.39988C8.80324 8.41699 8.82752 8.44162 8.84436 8.47128C8.8612 8.50095 8.87 8.53459 8.86986 8.56881V10.0124C8.88192 10.0125 8.8938 10.0095 8.90438 10.0037L10.1778 9.25519C10.1883 9.24892 10.1971 9.23998 10.2031 9.22925ZM8.2853 5.92841C8.29135 5.91768 8.29453 5.90554 8.29452 5.89318V4.40198C8.29453 4.38951 8.29125 4.37726 8.28501 4.3665C8.27877 4.35575 8.26981 4.34688 8.25904 4.34082L6.98658 3.59619C6.97594 3.59049 6.96409 3.58751 6.95206 3.58751C6.94002 3.58751 6.92817 3.59049 6.91753 3.59619L5.64411 4.3447C5.63174 4.35232 5.62228 4.36396 5.61726 4.37771L6.85616 5.09904C6.88543 5.11615 6.90971 5.14078 6.92655 5.17044C6.94339 5.20011 6.95219 5.23375 6.95206 5.26796V6.7116C6.96411 6.7117 6.97599 6.70869 6.98658 6.70286L8.26 5.95434C8.27052 5.94808 8.27924 5.93914 8.2853 5.92841Z" fill="white"/>
<path fill-rule="evenodd" clip-rule="evenodd" d="M11.7623 3.44243L7.70017 1.09713C7.267 0.847049 6.73333 0.847049 6.30017 1.09713L2.23799 3.44243C1.80483 3.69252 1.53799 4.1547 1.53799 4.65487V9.34547C1.53799 9.84564 1.80483 10.3078 2.23799 10.5579L6.30017 12.9032C6.73333 13.1533 7.267 13.1533 7.70017 12.9032L11.7623 10.5579C12.1955 10.3078 12.4623 9.84564 12.4623 9.34547V4.65487C12.4623 4.1547 12.1955 3.69252 11.7623 3.44243ZM8.00017 0.57752C7.38136 0.220254 6.61897 0.220254 6.00017 0.577519L1.93799 2.92282C1.31919 3.28008 0.937988 3.94034 0.937988 4.65487V9.34547C0.937988 10.06 1.31919 10.7203 1.93799 11.0775L6.00017 13.4228C6.61897 13.7801 7.38136 13.7801 8.00017 13.4228L12.0623 11.0775C12.6811 10.7203 13.0623 10.06 13.0623 9.34547V4.65487C13.0623 3.94034 12.6811 3.28008 12.0623 2.92282L8.00017 0.57752Z" fill="white"/>
</svg>
