<svg width="20" height="20" viewBox="0 0 20 20" fill="none" xmlns="http://www.w3.org/2000/svg">
<path d="M10 3.33329C6.31812 3.33329 3.33335 6.31806 3.33335 9.99996C3.33335 13.6819 6.31812 16.6666 10 16.6666C13.6819 16.6666 16.6667 13.6819 16.6667 9.99996C16.6667 6.31806 13.6819 3.33329 10 3.33329ZM1.66669 9.99996C1.66669 5.39759 5.39765 1.66663 10 1.66663C14.6024 1.66663 18.3334 5.39759 18.3334 9.99996C18.3334 14.6023 14.6024 18.3333 10 18.3333C5.39765 18.3333 1.66669 14.6023 1.66669 9.99996Z" fill="#3D3F4C"/>
<path d="M10 11.3333C9.63181 11.3333 9.33333 11.0349 9.33333 10.6667L9.33333 6.66667C9.33333 6.29848 9.63181 6 10 6C10.3682 6 10.6667 6.29848 10.6667 6.66667L10.6667 10.6667C10.6667 11.0349 10.3682 11.3333 10 11.3333Z" fill="#A9ABB2"/>
<path d="M9 13C9 12.4477 9.44772 12 10 12C10.5523 12 11 12.4477 11 13C11 13.5523 10.5523 14 10 14C9.44772 14 9 13.5523 9 13Z" fill="#A9ABB2"/>
</svg>
