<svg width="220" height="124" viewBox="0 0 220 124" fill="none" xmlns="http://www.w3.org/2000/svg">
<mask id="mask0_18575_17136" style="mask-type:alpha" maskUnits="userSpaceOnUse" x="0" y="0" width="220" height="124">
<rect width="220" height="124" fill="#C4C4C4"/>
</mask>
<g mask="url(#mask0_18575_17136)">
<path opacity="0.8" d="M134.547 95.9564C143.908 70.7968 158.5 76.162 164.449 68.9637C166.494 61.95 168.354 44.3787 159.429 30.2039C148.274 12.4854 131.306 8.12719 112.341 7.01976C93.3768 5.91234 84.4332 14.0418 80.1604 30.2039C75.0512 49.5302 47.6519 38.9102 40.9585 54.4141C34.2652 69.9181 35.1365 93.6162 69.6285 112.34C95.1411 126.189 126.726 116.974 134.547 95.9564Z" fill="#F1F4FF"/>
<path opacity="0.6" d="M123.241 106.327C131.135 105.306 161.651 114.257 170.852 103.563C182.185 84.296 159.993 84.6424 167.621 71.0913C177.156 54.1524 193.163 50.5709 185.679 34.7031C178.195 18.8354 159.16 15.138 150.815 20.278C142.47 25.4181 123.681 15.7185 108.059 17.2007C92.4371 18.6828 82.2854 37.7186 80.4802 64.5232C78.6751 91.3278 113.375 107.603 123.241 106.327Z" fill="#F1F4FF"/>
<g filter="url(#filter0_d_18575_17136)">
<path d="M90.1084 49.1484L74.3105 60.2655V92.4463H146.279V59.0952L129.896 49.1484H90.1084Z" fill="#8FB8FD"/>
<rect x="85.4277" y="36.2754" width="50.3191" height="51.4894" rx="4" fill="url(#paint0_linear_18575_17136)"/>
<path d="M117.609 50.3164V52.5756C117.609 55.176 115.52 57.289 112.928 57.331L112.849 57.3317L110.588 57.3318V59.5966C110.588 62.2721 108.464 64.3589 105.847 64.3589H103.566V62.0326C103.566 62.0222 103.566 62.0118 103.567 62.0014V56.975C103.567 53.2975 106.55 50.3164 110.231 50.3164H117.609Z" fill="white"/>
<path fill-rule="evenodd" clip-rule="evenodd" d="M114.594 50.3164H117.608V52.5754C117.608 55.2509 115.484 57.3376 112.867 57.3376H112.789H110.587V55.0132C110.587 52.6427 112.323 50.6773 114.594 50.3164Z" fill="#6896F0"/>
<path d="M117.609 50.3164V52.5756C117.609 55.176 115.52 57.289 112.928 57.331L112.849 57.3317L110.588 57.3318V59.5966C110.588 62.2721 108.464 64.3589 105.847 64.3589H103.566V62.0326C103.566 62.0222 103.566 62.0118 103.567 62.0014V56.975C103.567 53.2975 106.55 50.3164 110.231 50.3164H117.609Z" fill="white" fill-opacity="0.8"/>
<path d="M74.3105 104.148V59.6797L100.055 84.8393L74.3105 104.148Z" fill="url(#paint1_linear_18575_17136)"/>
<path d="M121.119 84.2542L146.279 59.6797V104.148C146.279 104.616 129.506 91.0804 121.119 84.2542Z" fill="url(#paint2_linear_18575_17136)"/>
<g filter="url(#filter1_i_18575_17136)">
<path d="M100.055 84.2539H121.119L145.108 103.562H74.3105L100.055 84.2539Z" fill="#DCE6FF"/>
</g>
</g>
<path d="M57.5432 56.1691L55.001 58.3719H57.5432L58.9555 60.85L59.5204 58.0965L60.3678 56.1691L63.1925 53.9664L60.0853 54.5171L58.9555 51.4883L58.5116 54.9989L57.5432 56.1691Z" fill="#4E81DD"/>
<path d="M161.692 86.0101L159.149 87.6268H161.692L163.104 90.1049L163.83 87.1803L164.516 85.424L167.341 83.2213L164.234 83.772L163.245 80.7441L162.66 84.2538L161.692 86.0101Z" fill="#4E81DD"/>
<path opacity="0.4" d="M82.9251 22.8184L80.7461 24.7458H82.9251L84.1357 26.9141L84.6199 24.5049L85.3462 22.8184L87.7674 20.891L85.1041 21.3728L84.1357 18.7227L83.7552 21.7945L82.9251 22.8184Z" fill="#4E81DD"/>
<path opacity="0.2" d="M137.199 32.1794L135.746 33.5562H137.199L138.006 35.105L138.329 33.3841L138.813 32.1794L140.427 30.8027L138.651 31.1469L138.006 29.2539L137.752 31.4481L137.199 32.1794Z" fill="#4E81DD"/>
<path d="M120.816 9.94506L119.363 11.3218H120.816L121.623 12.8706L121.946 11.1497L122.43 9.94506L124.044 8.56834L122.269 8.91252L121.623 7.01953L121.369 9.21368L120.816 9.94506Z" fill="#4E81DD"/>
<path opacity="0.3" d="M166.009 40.9579L163.83 42.61H166.009L167.22 44.4685L167.704 42.4035L168.43 40.9579L170.851 39.3058L168.188 39.7189L167.22 37.4473L166.839 40.0802L166.009 40.9579Z" fill="#4E81DD"/>
<path opacity="0.3" d="M111.817 110.586L110.001 111.962H111.817L112.826 113.511L113.229 111.79L113.834 110.586L115.852 109.209L113.633 109.553L112.826 107.66L112.509 109.854L111.817 110.586Z" fill="#4E81DD"/>
</g>
<defs>
<filter id="filter0_d_18575_17136" x="66.3105" y="30.2754" width="87.9678" height="83.8848" filterUnits="userSpaceOnUse" color-interpolation-filters="sRGB">
<feFlood flood-opacity="0" result="BackgroundImageFix"/>
<feColorMatrix in="SourceAlpha" type="matrix" values="0 0 0 0 0 0 0 0 0 0 0 0 0 0 0 0 0 0 127 0" result="hardAlpha"/>
<feOffset dy="2"/>
<feGaussianBlur stdDeviation="4"/>
<feColorMatrix type="matrix" values="0 0 0 0 0.294118 0 0 0 0 0.392157 0 0 0 0 0.913725 0 0 0 0.12 0"/>
<feBlend mode="normal" in2="BackgroundImageFix" result="effect1_dropShadow_18575_17136"/>
<feBlend mode="normal" in="SourceGraphic" in2="effect1_dropShadow_18575_17136" result="shape"/>
</filter>
<filter id="filter1_i_18575_17136" x="74.3105" y="80.2539" width="70.7979" height="23.3086" filterUnits="userSpaceOnUse" color-interpolation-filters="sRGB">
<feFlood flood-opacity="0" result="BackgroundImageFix"/>
<feBlend mode="normal" in="SourceGraphic" in2="BackgroundImageFix" result="shape"/>
<feColorMatrix in="SourceAlpha" type="matrix" values="0 0 0 0 0 0 0 0 0 0 0 0 0 0 0 0 0 0 127 0" result="hardAlpha"/>
<feOffset dy="-5"/>
<feGaussianBlur stdDeviation="2"/>
<feComposite in2="hardAlpha" operator="arithmetic" k2="-1" k3="1"/>
<feColorMatrix type="matrix" values="0 0 0 0 1 0 0 0 0 1 0 0 0 0 1 0 0 0 0.25 0"/>
<feBlend mode="normal" in2="shape" result="effect1_innerShadow_18575_17136"/>
</filter>
<linearGradient id="paint0_linear_18575_17136" x1="98.3001" y1="1.16901" x2="111.172" y2="98.8818" gradientUnits="userSpaceOnUse">
<stop stop-color="#9FAFFF"/>
<stop offset="1" stop-color="#4786E7"/>
</linearGradient>
<linearGradient id="paint1_linear_18575_17136" x1="80.7467" y1="86.5946" x2="74.8957" y2="87.1797" gradientUnits="userSpaceOnUse">
<stop stop-color="#C0D8FF"/>
<stop offset="1" stop-color="#D5E5FF"/>
</linearGradient>
<linearGradient id="paint2_linear_18575_17136" x1="140.428" y1="84.8393" x2="148.619" y2="84.8393" gradientUnits="userSpaceOnUse">
<stop stop-color="#C0D8FF"/>
<stop offset="1" stop-color="#CEE1FF"/>
</linearGradient>
</defs>
</svg>
