<svg width="36" height="36" viewBox="0 0 36 36" fill="none" xmlns="http://www.w3.org/2000/svg">
<mask id="mask0_10110_12580" style="mask-type:alpha" maskUnits="userSpaceOnUse" x="0" y="0" width="36" height="36">
<rect width="36" height="36" fill="#C4C4C4"/>
</mask>
<g mask="url(#mask0_10110_12580)">
<g filter="url(#filter0_f_10110_12580)">
<ellipse cx="18" cy="26.9998" rx="10" ry="2.5" fill="#9CA6FE"/>
</g>
</g>
<path d="M32 10.8215C32.5523 10.8215 33 11.2692 33 11.8215L33 20.1782C33 20.7305 32.5523 21.1782 32 21.1782L26.786 21.1782L26.786 10.8215L32 10.8215Z" fill="url(#paint0_linear_10110_12580)"/>
<rect x="30.6899" y="12.8931" width="1.434" height="2.868" transform="rotate(90 30.6899 12.8931)" fill="url(#paint1_linear_10110_12580)"/>
<rect x="30.6899" y="17.1946" width="1.434" height="2.868" transform="rotate(90 30.6899 17.1946)" fill="url(#paint2_linear_10110_12580)"/>
<rect x="26.7053" y="6.87896" width="18.242" height="22.544" rx="3.8" transform="rotate(90 26.7053 6.87896)" fill="url(#paint3_linear_10110_12580)" stroke="url(#paint4_linear_10110_12580)" stroke-width="0.4"/>
<path d="M15.9118 10.5029L11.1318 16.2389H15.4338L14.9558 20.0629L19.7358 14.3269H15.4338L15.9118 10.5029Z" fill="url(#paint5_linear_10110_12580)"/>
<defs>
<filter id="filter0_f_10110_12580" x="0" y="16.4998" width="36" height="21" filterUnits="userSpaceOnUse" color-interpolation-filters="sRGB">
<feFlood flood-opacity="0" result="BackgroundImageFix"/>
<feBlend mode="normal" in="SourceGraphic" in2="BackgroundImageFix" result="shape"/>
<feGaussianBlur stdDeviation="4" result="effect1_foregroundBlur_10110_12580"/>
</filter>
<linearGradient id="paint0_linear_10110_12580" x1="33" y1="15.9999" x2="25.528" y2="16.5229" gradientUnits="userSpaceOnUse">
<stop stop-color="#D7DBFF"/>
<stop offset="1" stop-color="#BBC2FF"/>
</linearGradient>
<linearGradient id="paint1_linear_10110_12580" x1="31.4069" y1="12.8931" x2="31.4069" y2="15.7611" gradientUnits="userSpaceOnUse">
<stop stop-color="white"/>
<stop offset="1" stop-color="white" stop-opacity="0.57"/>
</linearGradient>
<linearGradient id="paint2_linear_10110_12580" x1="31.4069" y1="17.1946" x2="31.4069" y2="20.0626" gradientUnits="userSpaceOnUse">
<stop stop-color="white"/>
<stop offset="1" stop-color="white" stop-opacity="0.57"/>
</linearGradient>
<linearGradient id="paint3_linear_10110_12580" x1="25.4713" y1="8.11295" x2="44.1132" y2="8.11295" gradientUnits="userSpaceOnUse">
<stop stop-color="#C1C5F2"/>
<stop offset="1" stop-color="#848EEA"/>
</linearGradient>
<linearGradient id="paint4_linear_10110_12580" x1="26.3874" y1="6.28047" x2="34.1549" y2="19.2263" gradientUnits="userSpaceOnUse">
<stop stop-color="white"/>
<stop offset="1" stop-color="white" stop-opacity="0"/>
</linearGradient>
<linearGradient id="paint5_linear_10110_12580" x1="15.4338" y1="10.5029" x2="15.5" y2="29.5" gradientUnits="userSpaceOnUse">
<stop stop-color="white"/>
<stop offset="1" stop-color="white" stop-opacity="0"/>
</linearGradient>
</defs>
</svg>
