<svg width="372" height="278" viewBox="0 0 372 278" fill="none" xmlns="http://www.w3.org/2000/svg">
  <ellipse cx="176.211" cy="48" rx="407.242" ry="230" fill="#26244B" />
  <ellipse cx="176.211" cy="48" rx="407.242" ry="230" fill="url(#paint0_linear)" />
  <path opacity="0.16" fill-rule="evenodd" clip-rule="evenodd" d="M147.587 246.388C131.959 252.601 119.576 251.593 109.653 248.1C106.6 247.026 103.78 245.718 101.168 244.309C102.75 245.039 104.4 245.719 106.122 246.326C116.227 249.882 128.817 250.891 144.637 244.601C154.602 240.639 160.781 236.036 166.182 229.216C170.973 223.166 175.15 215.37 180.829 204.77L180.833 204.763L180.835 204.759L180.839 204.752C181.533 203.455 182.25 202.117 182.994 200.736C196.641 175.361 213.996 156.245 241.354 148.915C269.944 141.254 297.416 142.855 319.837 148.859C329.854 151.541 338.854 155.099 346.49 159.097C339.624 155.81 331.825 152.896 323.308 150.615C300.763 144.578 273.142 142.968 244.396 150.671C216.73 158.084 199.224 177.42 185.521 202.899C184.775 204.286 184.056 205.627 183.361 206.924C177.67 217.546 173.531 225.27 168.789 231.258C163.489 237.951 157.433 242.473 147.587 246.388ZM368.434 174.74C369.442 175.732 370.364 176.725 371.196 177.712L371.829 177.178C369.956 174.956 367.642 172.714 364.931 170.504C363.278 168.703 361.345 166.896 359.153 165.11C354.752 160.345 348.38 155.54 340.458 151.206C339.545 150.649 338.607 150.099 337.645 149.555C328.269 140.815 312.516 132.255 292.989 127.027C270.444 120.99 242.823 119.38 214.077 127.082C186.411 134.495 168.905 153.832 155.201 179.311C154.456 180.697 153.737 182.038 153.042 183.336C147.351 193.957 143.212 201.682 138.47 207.67C133.17 214.363 127.114 218.885 117.268 222.799C101.64 229.012 89.2568 228.004 79.3336 224.512C71.3759 221.712 65.002 217.319 59.7643 213.71C58.4517 212.806 57.2105 211.95 56.0336 211.182L55.5808 211.875C56.7319 212.627 57.9546 213.469 59.254 214.365L59.256 214.366C59.4878 214.526 59.722 214.688 59.9587 214.851L59.8505 215.016C60.9976 215.767 62.216 216.61 63.5109 217.505L63.5164 217.509L63.5174 217.509L63.5196 217.511C64.5215 218.204 65.5691 218.928 66.6647 219.666L66.3632 220.128C67.5142 220.88 68.7369 221.722 70.0363 222.618L70.0383 222.62L70.0385 222.62C73.2509 224.834 76.9321 227.372 81.1597 229.658L80.9866 229.923C82.1357 230.675 83.3563 231.519 84.6535 232.416L84.6539 232.417C87.6 234.453 90.9415 236.764 94.7379 238.902C89.1162 236.271 84.3823 233.009 80.329 230.216L80.3281 230.216L80.3258 230.214L80.3247 230.213C79.0137 229.31 77.7739 228.456 76.5983 227.688L76.1456 228.381C77.2966 229.133 78.5193 229.976 79.8187 230.871L79.8207 230.873L79.8236 230.875C80.7404 231.507 81.6953 232.165 82.6903 232.836L82.6438 232.907C83.7184 233.609 84.8554 234.39 86.0589 235.22L85.8999 235.463C87.051 236.215 88.2736 237.058 89.573 237.953L89.5751 237.955C94.8158 241.567 101.305 246.04 109.378 248.881C119.483 252.438 132.073 253.447 147.893 247.157C157.858 243.195 164.037 238.592 169.438 231.772C174.229 225.722 178.406 217.926 184.085 207.325L184.09 207.316C184.786 206.018 185.505 204.677 186.25 203.291C199.897 177.917 217.252 158.801 244.61 151.471C273.2 143.81 300.673 145.411 323.093 151.415C336.029 154.878 347.268 159.803 356.064 165.248C358.135 167.039 359.935 168.843 361.442 170.63L362.075 170.096C361.451 169.356 360.778 168.613 360.058 167.871C360.642 168.278 361.212 168.688 361.769 169.099C364.176 171.112 366.244 173.144 367.94 175.156L368.434 174.74ZM73.569 223.025C76.5923 224.755 79.9055 226.379 83.5516 227.668C93.4506 231.166 105.801 232.183 121.383 225.982C131.2 222.075 137.235 217.559 142.516 210.871C147.241 204.888 151.364 197.168 157.032 186.553L157.032 186.553L157.032 186.553L157.035 186.547L157.055 186.51C157.741 185.226 158.449 183.9 159.183 182.53C172.832 157.066 190.278 137.745 217.866 130.353C246.53 122.672 274.08 124.301 296.569 130.353C309.9 133.94 321.469 139.086 330.443 144.78C321.115 138.118 308.142 131.941 292.774 127.826C270.353 121.823 242.881 120.221 214.291 127.882C186.933 135.213 169.578 154.329 155.931 179.703C155.184 181.091 154.464 182.435 153.766 183.737C148.087 194.338 143.91 202.134 139.119 208.184C133.718 215.003 127.539 219.607 117.574 223.568C101.754 229.858 89.1638 228.849 79.0588 225.293C77.141 224.618 75.3125 223.851 73.569 223.025ZM339.375 152.44C338.489 151.657 337.551 150.877 336.563 150.1C329.316 146.469 320.927 143.242 311.668 140.763C289.247 134.759 261.775 133.158 233.185 140.818C205.827 148.149 188.472 167.265 174.824 192.639C174.078 194.028 173.358 195.372 172.66 196.673L172.66 196.674L172.66 196.674C166.981 207.274 162.804 215.07 158.013 221.12C152.612 227.94 146.432 232.543 136.468 236.505C120.648 242.795 108.058 241.785 97.9528 238.229C94.0621 236.86 90.5394 235.112 87.3471 233.264C91.8599 236.343 97.1646 239.729 103.501 242.139C112.778 244.648 124.042 244.788 137.833 239.305C147.679 235.391 153.734 230.869 159.034 224.176C163.777 218.188 167.915 210.464 173.607 199.842L173.612 199.831C174.306 198.537 175.023 197.2 175.766 195.817C189.47 170.338 206.975 151.002 234.642 143.589C263.387 135.886 291.009 137.496 313.553 143.533C320.779 145.467 327.488 147.858 333.548 150.546C335.911 151.499 338.189 152.499 340.373 153.537C340.052 153.172 339.72 152.806 339.375 152.44ZM296.354 131.152C303.318 133.026 309.789 135.325 315.65 137.901C310.789 135.95 305.566 134.196 300.039 132.709C277.55 126.657 250.001 125.028 221.336 132.708C193.748 140.1 176.303 159.421 162.654 184.885C161.911 186.271 161.195 187.611 160.503 188.908C154.834 199.524 150.712 207.243 145.987 213.227C140.705 219.915 134.67 224.431 124.853 228.338C109.272 234.538 96.9209 233.522 87.022 230.023C85.3433 229.43 83.7352 228.766 82.1935 228.053C82.5511 228.188 82.9118 228.32 83.2758 228.448C93.3567 232.011 105.914 233.029 121.689 226.751C131.624 222.797 137.784 218.199 143.166 211.384C147.94 205.339 152.1 197.547 157.757 186.953L157.757 186.953C158.452 185.652 159.169 184.309 159.913 182.921C173.506 157.561 190.801 138.462 218.08 131.152C246.588 123.514 273.989 125.134 296.354 131.152ZM343.757 156.793C343.665 156.688 343.572 156.584 343.478 156.479C340.323 154.672 336.895 152.936 333.225 151.308C328.336 149.336 323.071 147.561 317.49 146.059C295.125 140.041 267.724 138.42 239.216 146.059C211.937 153.369 194.642 172.468 181.049 197.828C180.305 199.215 179.588 200.559 178.893 201.86C173.237 212.454 169.076 220.246 164.302 226.291C158.921 233.106 152.76 237.704 142.825 241.658C127.051 247.936 114.493 246.918 104.412 243.355C104.02 243.216 103.631 243.074 103.246 242.928C102.004 242.591 100.797 242.212 99.6235 241.799C97.5949 241.085 95.6662 240.268 93.8323 239.388C97.5269 241.669 101.684 243.886 106.397 245.545C116.32 249.037 128.703 250.045 144.331 243.832C154.177 239.917 160.232 235.395 165.533 228.702C170.275 222.714 174.414 214.99 180.105 204.369L180.105 204.368L180.108 204.362C180.803 203.066 181.52 201.727 182.264 200.343C195.968 174.865 213.474 155.528 241.14 148.115C269.886 140.413 297.507 142.023 320.051 148.059C328.786 150.398 336.765 153.403 343.757 156.793ZM344.694 157.187L344.645 157.228C344.886 157.347 345.125 157.467 345.363 157.587C345.141 157.453 344.918 157.32 344.694 157.187ZM81.7489 228.758C82.3755 229.179 83.0171 229.605 83.674 230.031C85.699 231.035 87.8429 231.965 90.116 232.765C100.039 236.257 112.422 237.266 128.05 231.052C137.897 227.138 143.952 222.616 149.252 215.923C153.994 209.935 158.133 202.21 163.824 191.589L163.828 191.583C164.522 190.287 165.239 188.948 165.984 187.564C179.687 162.085 197.193 142.749 224.859 135.335C253.605 127.633 281.226 129.243 303.771 135.28C309.95 136.934 315.752 138.923 321.093 141.145C314.722 138.208 307.578 135.595 299.824 133.508C277.459 127.49 250.059 125.869 221.551 133.508C194.271 140.817 176.976 159.917 163.383 185.277C162.64 186.664 161.922 188.007 161.228 189.308C155.571 199.903 151.41 207.695 146.636 213.74C141.255 220.555 135.095 225.153 125.159 229.107C109.385 235.384 96.827 234.367 86.7461 230.804C85.0079 230.189 83.3433 229.499 81.7489 228.758ZM303.557 136.079C308.282 137.345 312.781 138.805 317.017 140.414C314.06 139.405 310.993 138.469 307.827 137.621C285.282 131.585 257.661 129.975 228.915 137.677C201.249 145.09 183.743 164.427 170.04 189.906C169.3 191.28 168.588 192.61 167.898 193.897L167.886 193.92L167.88 193.931L167.88 193.931L167.88 193.931L167.88 193.931C162.189 204.552 158.05 212.277 153.308 218.264C148.008 224.957 141.952 229.479 132.106 233.394C116.478 239.607 104.095 238.599 94.1718 235.107C93.3085 234.803 92.4639 234.48 91.6373 234.142C101.428 237.195 113.46 237.744 128.356 231.822C138.321 227.86 144.5 223.257 149.901 216.437C154.692 210.387 158.869 202.591 164.549 191.99L164.552 191.983C165.249 190.684 165.968 189.342 166.713 187.956C180.36 162.582 197.715 143.466 225.073 136.135C253.663 128.475 281.136 130.076 303.557 136.079ZM347.971 157.388C348.09 157.496 348.208 157.604 348.325 157.712L348.534 157.834C348.348 157.685 348.161 157.536 347.971 157.388ZM95.6931 236.484C96.5197 236.822 97.3643 237.145 98.2276 237.448C108.151 240.941 120.534 241.949 136.162 235.735C146.008 231.821 152.063 227.299 157.364 220.606C162.106 214.618 166.245 206.894 171.936 196.272L171.936 196.272L171.939 196.266C172.634 194.97 173.351 193.631 174.095 192.247C187.799 166.768 205.305 147.432 232.971 140.019C261.717 132.316 289.338 133.926 311.882 139.963C315.049 140.811 318.116 141.746 321.073 142.756C316.837 141.146 312.338 139.686 307.613 138.421C285.192 132.418 257.719 130.816 229.129 138.477C201.771 145.807 184.416 164.923 170.769 190.298C170.025 191.68 169.309 193.018 168.614 194.314L168.61 194.321L168.608 194.325L168.605 194.332C162.925 204.932 158.748 212.728 153.957 218.778C148.556 225.598 142.377 230.201 132.412 234.163C117.516 240.086 105.484 239.537 95.6931 236.484ZM352.378 161.188C352.079 160.991 351.777 160.796 351.472 160.6C351.883 160.893 352.287 161.187 352.684 161.482C352.582 161.384 352.48 161.286 352.378 161.188ZM355.972 163.744C355.929 163.695 355.886 163.646 355.842 163.596C356.14 163.815 356.435 164.035 356.725 164.255C356.476 164.084 356.225 163.914 355.972 163.744ZM352.895 160.537C352.612 160.268 352.322 159.998 352.027 159.729C352.575 160.159 353.107 160.591 353.624 161.023C353.383 160.861 353.14 160.699 352.895 160.537ZM307.566 142.912C286.281 138.125 261.037 137.373 234.856 144.388C207.497 151.719 190.143 170.835 176.495 196.209C175.751 197.594 175.033 198.934 174.337 200.232L174.331 200.243C168.652 210.844 164.475 218.64 159.683 224.69C154.283 231.51 148.103 236.113 138.139 240.075C127.867 244.158 118.958 245.165 111.206 244.396C119.877 246.183 130.186 245.797 142.519 240.889C152.336 236.982 158.371 232.466 163.652 225.778C168.378 219.795 172.5 212.075 178.168 201.459L178.172 201.454L178.191 201.417C178.877 200.133 179.585 198.807 180.319 197.437C193.968 171.972 211.414 152.652 239.002 145.259C263.491 138.698 287.165 138.931 307.566 142.912Z" fill="url(#paint1_linear)" />
  <g opacity="0.6">
    <g opacity="0.6">
      <ellipse cx="321.673" cy="246.138" rx="120" ry="123" fill="url(#paint2_linear)" fill-opacity="0.25" />
      <ellipse cx="321.673" cy="246.138" rx="120" ry="123" fill="url(#paint3_linear)" fill-opacity="0.2" />
    </g>
    <path fill-rule="evenodd" clip-rule="evenodd" d="M247.445 149.487C223.339 166.625 190.627 189.138 162.673 189.138C79.6727 189.138 16.1728 140.638 0.672766 107.638C-11.7272 81.2384 -8.16057 204.972 -4.82723 270.138L226.78 321.437C211.041 300.629 201.673 274.505 201.673 246.138C201.673 206.932 219.569 172.01 247.445 149.487ZM259.993 140.609C260.221 140.468 260.45 140.328 260.679 140.19L260.673 140.138C260.447 140.294 260.221 140.45 259.993 140.609Z" fill="url(#paint4_linear)" />
    <path fill-rule="evenodd" clip-rule="evenodd" d="M247.445 149.487C223.339 166.625 190.627 189.138 162.673 189.138C79.6727 189.138 16.1728 140.638 0.672766 107.638C-11.7272 81.2384 -8.16057 204.972 -4.82723 270.138L226.78 321.437C211.041 300.629 201.673 274.505 201.673 246.138C201.673 206.932 219.569 172.01 247.445 149.487ZM259.993 140.609C260.221 140.468 260.45 140.328 260.679 140.19L260.673 140.138C260.447 140.294 260.221 140.45 259.993 140.609Z" fill="url(#paint5_linear)" />
    <path opacity="0.5" d="M261 140.5C236.833 157.167 196.5 189.5 163 189.5C80 189.5 16.5 141 1 108" stroke="url(#paint6_linear)" stroke-opacity="0.26" stroke-width="0.6" />
  </g>
  <path fill-rule="evenodd" clip-rule="evenodd" d="M15.8123 -22.0916C43.9664 -5.86086 80.5487 6.25002 122 6.25002C138.68 6.25002 157.089 -1.80315 174.373 -11.9655C187.113 -19.4557 199.214 -28.0745 209.541 -35.4295L209.541 -35.4297C213.223 -38.0518 216.679 -40.5133 219.858 -42.7058L220.142 -42.2942C216.974 -40.1091 213.525 -37.6526 209.848 -35.0338C199.517 -27.6761 187.387 -19.0369 174.627 -11.5345C157.328 -1.36346 138.82 6.75002 122 6.75002C87.545 6.75002 56.4466 -1.59787 30.7382 -13.7264C57.3489 -0.263206 90.2621 9.25002 127 9.25002C143.68 9.25002 162.089 1.19685 179.373 -8.96548C192.113 -16.4557 204.214 -25.0745 214.541 -32.4295L214.541 -32.4297C218.223 -35.0518 221.679 -37.5133 224.858 -39.7058L225.142 -39.2942C221.974 -37.1091 218.525 -34.6526 214.848 -32.0338C204.517 -24.6761 192.387 -16.0369 179.627 -8.53445C162.328 1.63654 143.82 9.75002 127 9.75002C85.4512 9.75002 48.7836 -2.38909 20.5626 -18.6584C18.6783 -19.7447 16.8316 -20.8494 15.0234 -21.9703C9.03071 -25.4495 3.42171 -29.1148 -1.76868 -32.8886C-1.41723 -32.3359 -1.05417 -31.7803 -0.679623 -31.2222C6.03212 -25.9604 13.559 -20.8496 21.8123 -16.0916C49.9664 0.139137 86.5487 12.25 128 12.25C144.68 12.25 163.089 4.19685 180.373 -5.96548C193.113 -13.4557 205.214 -22.0745 215.541 -29.4295L215.541 -29.4297C219.223 -32.0518 222.679 -34.5133 225.858 -36.7058L226.142 -36.2942C222.974 -34.1094 219.525 -31.6533 215.849 -29.0349L215.848 -29.0338C205.517 -21.6761 193.387 -13.0369 180.627 -5.53445C163.328 4.63654 144.82 12.75 128 12.75C86.4512 12.75 49.7836 0.610909 21.5626 -15.6584C13.7946 -20.1366 6.66464 -24.929 0.24794 -29.8686C0.347382 -29.7264 0.447552 -29.584 0.54845 -29.4415C7.93792 -23.3989 16.4031 -17.516 25.8123 -12.0916C53.9664 4.13914 90.5487 16.25 132 16.25C148.68 16.25 167.089 8.19685 184.373 -1.96548C197.113 -9.45572 209.214 -18.0745 219.541 -25.4295L219.541 -25.4297C223.223 -28.0518 226.679 -30.5133 229.858 -32.7058L230.142 -32.2942C226.974 -30.1094 223.525 -27.6533 219.849 -25.0349L219.848 -25.0338C209.517 -17.6761 197.387 -9.03688 184.627 -1.53445C167.328 8.63654 148.82 16.75 132 16.75C90.4512 16.75 53.7836 4.61091 25.5626 -11.6584C16.7388 -16.7453 8.73829 -22.2375 1.67126 -27.8905C1.69953 -27.8522 1.72784 -27.814 1.75621 -27.7758C9.78019 -20.9168 19.1952 -14.2123 29.8123 -8.09157C57.9664 8.13914 94.5487 20.25 136 20.25C152.68 20.25 171.089 12.1968 188.373 2.03452C201.113 -5.45572 213.214 -14.0745 223.541 -21.4295L223.541 -21.4297C227.223 -24.0518 230.679 -26.5133 233.858 -28.7058L234.142 -28.2942C230.974 -26.1094 227.525 -23.6533 223.849 -21.0349L223.848 -21.0338C213.517 -13.6761 201.387 -5.03688 188.627 2.46555C171.328 12.6365 152.82 20.75 136 20.75C94.4512 20.75 57.7836 8.61091 29.5626 -7.65839C20.4295 -12.9236 12.1784 -18.623 4.93151 -24.4855C13.1326 -17.3797 22.8293 -10.4233 33.8123 -4.09157C61.9664 12.1391 98.5487 24.25 140 24.25C156.68 24.25 175.089 16.1968 192.373 6.03452C205.113 -1.45557 217.214 -10.0742 227.54 -17.4291L227.541 -17.4297C231.223 -20.0518 234.679 -22.5133 237.858 -24.7058L238.142 -24.2942C234.974 -22.1094 231.525 -19.6533 227.849 -17.0349L227.848 -17.0338C217.517 -9.67606 205.387 -1.03688 192.627 6.46555C175.328 16.6365 156.82 24.75 140 24.75C98.4512 24.75 61.7836 12.6109 33.5626 -3.65839C22.5714 -9.99482 12.8576 -16.96 4.63417 -24.0816C5.36894 -23.181 6.13076 -22.2769 6.91918 -21.3701C15.3308 -13.9576 25.3739 -6.68578 36.8123 -0.091568C64.9664 16.1391 101.549 28.25 143 28.25C159.68 28.25 178.089 20.1968 195.373 10.0345C208.113 2.54443 220.214 -6.07417 230.54 -13.4291L230.541 -13.4297C234.223 -16.0518 237.679 -18.5133 240.858 -20.7058L241.142 -20.2942C237.974 -18.1094 234.525 -15.6533 230.849 -13.0349L230.848 -13.0338C220.517 -5.67606 208.387 2.96312 195.627 10.4655C178.328 20.6365 159.82 28.75 143 28.75C101.451 28.75 64.7836 16.6109 36.5626 0.341614C27.4295 -4.92362 19.1784 -10.623 11.9315 -16.4855C20.1326 -9.37965 29.8293 -2.42326 40.8123 3.90843C68.9664 20.1391 105.549 32.25 147 32.25C163.68 32.25 182.089 24.1968 199.373 14.0345C212.113 6.54446 224.214 -2.07411 234.54 -9.42902L234.541 -9.4297C238.223 -12.0518 241.679 -14.5133 244.858 -16.7058L245.142 -16.2942C241.974 -14.1094 238.525 -11.6533 234.849 -9.03489L234.848 -9.03381C224.517 -1.67606 212.387 6.96312 199.627 14.4655C182.328 24.6365 163.82 32.75 147 32.75C105.451 32.75 68.7836 20.6109 40.5626 4.34161C31.4295 -0.92363 23.1784 -6.62302 15.9315 -12.4856C24.1326 -5.37968 33.8293 1.57673 44.8123 7.90843C72.9664 24.1391 109.549 36.25 151 36.25C167.68 36.25 186.089 28.1968 203.373 18.0345C216.113 10.5445 228.214 1.92589 238.54 -5.42902L238.541 -5.4297C242.223 -8.05182 245.679 -10.5133 248.858 -12.7058L249.142 -12.2942C245.974 -10.1094 242.525 -7.65327 238.849 -5.03489L238.848 -5.03381C228.517 2.32394 216.387 10.9631 203.627 18.4655C186.328 28.6365 167.82 36.75 151 36.75C109.451 36.75 72.7836 24.6109 44.5626 8.34161C34.7072 2.66 25.8789 -3.52713 18.2312 -9.87927C26.9756 -1.94652 37.5985 5.86722 49.8123 12.9084C77.9664 29.1391 114.549 41.25 156 41.25C172.68 41.25 191.089 33.1968 208.373 23.0345C221.113 15.5445 233.214 6.92589 243.54 -0.429016L243.541 -0.429703C247.223 -3.05182 250.679 -5.51331 253.858 -7.70576L254.142 -7.29416C250.974 -5.10936 247.525 -2.65327 243.849 -0.0348892L243.848 -0.0338135C233.517 7.32394 221.387 15.9631 208.627 23.4655C191.328 33.6365 172.82 41.75 156 41.75C114.451 41.75 77.7836 29.6109 49.5626 13.3416C33.5105 4.08762 20.1832 -6.50742 10.2436 -16.9723C8.6691 -18.4706 7.16181 -19.9711 5.7237 -21.4695C4.33656 -22.8025 3.00277 -24.1368 1.72371 -25.4694C-2.52354 -29.551 -6.27057 -33.6448 -9.47815 -37.6638C-10.793 -38.9322 -12.0594 -40.2016 -13.2763 -41.4695C-15.0127 -43.1381 -16.6655 -44.8089 -18.2321 -46.4757C-28.5881 -56.2355 -36.0987 -66.106 -40.2263 -74.8937L-39.7737 -75.1063C-36.436 -68 -30.8587 -60.1642 -23.3267 -52.246C-28.09 -58.0119 -31.7614 -63.6459 -34.2263 -68.8937L-33.813 -69.0878C-34.3211 -70.0341 -34.7924 -70.9699 -35.2263 -71.8937L-34.7737 -72.1063C-33.1808 -68.7148 -31.0777 -65.1572 -28.4955 -61.5037C-29.126 -62.6494 -29.7033 -63.7803 -30.2263 -64.8937L-29.7737 -65.1063C-28.637 -62.6862 -27.2406 -60.1814 -25.5956 -57.6177C-24.434 -56.1386 -23.1981 -54.6482 -21.8898 -53.1509C-23.6013 -55.8013 -25.051 -58.3914 -26.2263 -60.8937L-25.7737 -61.1063C-24.173 -57.6982 -22.0571 -54.1223 -19.4575 -50.45C-18.7079 -49.6415 -17.9376 -48.8318 -17.147 -48.0216C-19.1853 -51.066 -20.8845 -54.0371 -22.2263 -56.8937L-21.7737 -57.1063C-20.5779 -54.5603 -19.0946 -51.9206 -17.3369 -49.2171C-18.0295 -50.461 -18.6598 -51.6875 -19.2263 -52.8937L-18.7737 -53.1063C-17.5801 -50.565 -16.1 -47.9304 -14.3466 -45.2321C-13.6193 -44.5275 -12.8769 -43.8231 -12.1196 -43.1194C-13.3063 -45.0859 -14.3437 -47.0146 -15.2263 -48.8937L-14.7737 -49.1063C-13.6738 -46.7644 -12.3306 -44.3433 -10.7544 -41.8662C-10.0565 -41.2332 -9.34657 -40.601 -8.62487 -39.9698C-9.60302 -41.6425 -10.4713 -43.2862 -11.2263 -44.8937L-10.7737 -45.1063C-9.83045 -43.098 -8.70831 -41.0315 -7.41374 -38.9213C-6.45222 -38.0971 -5.47062 -37.2751 -4.46925 -36.456C-5.11 -37.6181 -5.69606 -38.7648 -6.22629 -39.8937L-5.77372 -40.1063C-5.08165 -38.6328 -4.29328 -37.128 -3.41118 -35.5976C2.23105 -31.057 8.48029 -26.6151 15.2803 -22.3994C15.4573 -22.2966 15.6347 -22.194 15.8123 -22.0916ZM-3.79756 -35.2668C-4.72462 -36.0137 -5.63539 -36.7633 -6.52961 -37.515C-6.35094 -37.2375 -6.16936 -36.9592 -5.9849 -36.6804C-5.17852 -36.0547 -4.36062 -35.4312 -3.53134 -34.8104C-3.62099 -34.9628 -3.70973 -35.1149 -3.79756 -35.2668ZM-2.47964 -34.0289C-2.55291 -34.1488 -2.62562 -34.2685 -2.69777 -34.3881C-1.40936 -33.3673 -0.0904961 -32.3519 1.25815 -31.3435C-0.0114899 -32.2321 -1.25758 -33.1276 -2.47964 -34.0289ZM-2.85517 -33.6847C-3.61222 -34.2436 -4.36012 -34.8048 -5.09874 -35.368C-4.78842 -34.9176 -4.47071 -34.4656 -4.14569 -34.0122C-3.41711 -33.4099 -2.67783 -32.8092 -1.92799 -32.2102C-2.24617 -32.7038 -2.55526 -33.1954 -2.85517 -33.6847ZM-1.05058 -30.8778C-1.69619 -31.3844 -2.3343 -31.8925 -2.96484 -32.4017L-2.95215 -32.3848C-2.27043 -31.7953 -1.57842 -31.2068 -0.87624 -30.6196C-0.934624 -30.7057 -0.992737 -30.7918 -1.05058 -30.8778ZM2.50495 -25.9588C2.1484 -26.2788 1.79488 -26.5991 1.44441 -26.9196C2.32387 -25.8953 3.23747 -24.8675 4.18459 -23.8375C4.18926 -23.8332 4.19392 -23.8289 4.19859 -23.8246C3.61713 -24.5383 3.05251 -25.2499 2.50495 -25.9588ZM-7.1957 -37.6284C-7.40064 -37.9508 -7.60168 -38.2723 -7.79878 -38.5928C-8.43998 -39.143 -9.07228 -39.6941 -9.69561 -40.2461C-9.39085 -39.7916 -9.07847 -39.3355 -8.75852 -38.8778C-8.24269 -38.4605 -7.72174 -38.044 -7.1957 -37.6284ZM-5.62246 -35.2473C-5.87193 -35.6112 -6.11662 -35.9741 -6.35648 -36.3359C-6.80442 -36.6838 -7.24882 -37.0325 -7.68965 -37.3817C-7.44769 -37.0501 -7.20184 -36.7178 -6.95214 -36.3848C-6.51318 -36.0052 -6.06993 -35.626 -5.62246 -35.2473ZM-11.1401 -41.541C-11.7917 -42.1325 -12.433 -42.7248 -13.0638 -43.3174C-12.8475 -43.0038 -12.6275 -42.6895 -12.404 -42.3745C-12.0213 -41.8901 -11.6306 -41.4046 -11.232 -40.918C-10.869 -40.6127 -10.5032 -40.3077 -10.1347 -40.0031C-10.4795 -40.5179 -10.8147 -41.0306 -11.1401 -41.541ZM-9.12792 -38.5336L-9.24256 -38.6265L-9.44514 -38.7911C-9.20726 -38.5149 -8.96691 -38.2384 -8.72408 -37.9617C-8.85998 -38.1526 -8.99461 -38.3433 -9.12792 -38.5336ZM-15.5268 -45.6858C-16.052 -46.2027 -16.569 -46.7198 -17.0779 -47.2367C-15.9627 -45.794 -14.7762 -44.3398 -13.5203 -42.8785C-13.4306 -42.8001 -13.3407 -42.7218 -13.2506 -42.6435C-14.0447 -43.6634 -14.8037 -44.678 -15.5268 -45.6858ZM-22.3431 -52.9099C-21.538 -51.9867 -20.7057 -51.0611 -19.8465 -50.134C-18.845 -48.7203 -17.7725 -47.2929 -16.631 -45.8557C-18.719 -48.2294 -20.6256 -50.5867 -22.3431 -52.9099ZM-26.0034 -57.3274C-28.9647 -61.0999 -31.4467 -64.8019 -33.4167 -68.3609C-30.577 -62.5438 -26.2641 -56.2595 -20.6309 -49.8557C-22.639 -52.3837 -24.4331 -54.8815 -26.0034 -57.3274Z" fill="url(#paint7_linear)" fill-opacity="0.16" />
  <path fill-rule="evenodd" clip-rule="evenodd" d="M181.589 -48.1362C162.487 -67.1416 150.385 -87.1107 146.566 -102.495L147.052 -102.615C151.427 -84.9892 166.797 -61.2025 191.261 -39.7989C193.741 -37.6297 196.313 -35.4851 198.977 -33.3741C202.068 -31.0305 205.273 -28.7345 208.59 -26.4987C203.667 -30.1121 199.02 -33.8497 194.661 -37.6634C170.151 -59.1069 154.704 -82.9764 150.295 -100.735L150.781 -100.856C155.156 -83.2301 170.526 -59.4433 194.99 -38.0397C198.162 -35.2645 201.487 -32.5296 204.96 -29.8538C202.98 -31.4622 201.052 -33.0885 199.176 -34.729C174.666 -56.1724 159.219 -80.0419 154.811 -97.8011L155.296 -97.9215C159.671 -80.2956 175.041 -56.5089 199.506 -35.1053C205.74 -29.6511 212.563 -24.353 219.944 -19.3521C220.204 -19.1992 220.466 -19.0467 220.728 -18.8945C215.012 -22.9824 209.655 -27.2414 204.673 -31.5998C180.163 -53.0433 164.715 -76.9128 160.307 -94.6719L160.792 -94.7924C165.168 -77.1665 180.537 -53.3797 205.002 -31.9761C211.208 -26.5464 217.998 -21.2713 225.341 -16.2902C243.243 -6.47334 263.698 1.42335 286.371 5.92049C302.732 9.16559 322.357 4.84793 341.288 -1.75746C355.241 -6.62602 368.788 -12.7257 380.349 -17.9311L380.349 -17.9312L380.351 -17.932C384.471 -19.7874 388.34 -21.5292 391.884 -23.0611L392.083 -22.6021C388.55 -21.0752 384.689 -19.3367 380.572 -17.4833C369.008 -12.276 355.429 -6.16187 341.453 -1.28538C322.505 5.32565 302.773 9.68342 286.274 6.41093C265.559 2.30226 246.692 -4.63722 229.926 -13.2849C233.941 -11.0081 238.088 -8.82698 242.365 -6.7588C256.844 -0.0982819 272.739 5.25551 289.906 8.66048C306.267 11.9056 325.891 7.58792 344.822 0.982529C358.776 -3.88603 372.323 -9.98576 383.883 -15.1911L383.883 -15.1912L383.885 -15.192C388.006 -17.0474 391.874 -18.7892 395.419 -20.3211L395.617 -19.8621C392.084 -18.3352 388.223 -16.5967 384.107 -14.7433C372.542 -9.53603 358.963 -3.42188 344.987 1.45461C326.04 8.06564 306.308 12.4234 289.809 9.15092C281.704 7.54347 273.883 5.50274 266.359 3.09594C275.046 6.06026 284.146 8.53763 293.635 10.4196C309.996 13.6647 329.62 9.34708 348.551 2.74168C362.505 -2.12688 376.052 -8.2266 387.612 -13.4319L387.612 -13.4321C391.734 -15.2878 395.603 -17.0299 399.148 -18.5619L399.346 -18.1029C395.813 -16.576 391.952 -14.8375 387.836 -12.9841C376.271 -7.77688 362.692 -1.66272 348.716 3.21377C329.769 9.8248 310.037 14.1826 293.538 10.9101C274.842 7.20193 257.651 1.18797 242.152 -6.30651C241.398 -6.65353 240.647 -7.0041 239.901 -7.35812C257.13 1.76315 276.642 9.08811 298.15 13.3541C314.511 16.5992 334.136 12.2815 353.067 5.67613C367.02 0.807571 380.567 -5.29215 392.127 -10.4975L392.128 -10.4976C396.249 -12.3534 400.118 -14.0954 403.663 -15.6275L403.861 -15.1685C400.329 -13.6417 396.468 -11.9034 392.352 -10.0502L392.351 -10.0497C380.786 -4.84243 367.207 1.27173 353.231 6.14822C334.284 12.7592 314.552 17.117 298.053 13.8445C281.419 10.5452 265.976 5.42054 251.856 -0.948219C267.455 6.64737 284.783 12.7418 303.647 16.4832C320.007 19.7283 339.632 15.4107 358.563 8.80528C372.516 3.93672 386.063 -2.163 397.624 -7.36831L397.624 -7.36847C401.746 -9.22421 405.614 -10.9663 409.159 -12.4983L409.358 -12.0393C405.826 -10.5129 401.966 -8.775 397.851 -6.92226L397.848 -6.92055C386.283 -1.71328 372.704 4.40088 358.728 9.27737C339.78 15.8884 320.048 20.2462 303.549 16.9737C278.363 11.9782 255.908 2.79788 236.641 -8.54932C234.312 -9.83006 232.027 -11.1432 229.785 -12.4854C218.364 -18.6586 207.964 -25.615 198.671 -32.979C194.725 -35.9716 190.965 -39.0416 187.398 -42.1626C162.888 -63.606 147.44 -87.4755 143.032 -105.235L143.517 -105.355C147.514 -89.2525 160.688 -68.008 181.589 -48.1362ZM218.47 -19.6424C218.77 -19.4551 219.071 -19.2684 219.373 -19.0822C219.276 -19.1447 219.179 -19.2074 219.082 -19.2701C219.024 -19.3074 218.966 -19.3447 218.908 -19.382C218.831 -19.4281 218.753 -19.4741 218.675 -19.5202C218.607 -19.5609 218.538 -19.6017 218.47 -19.6424Z" fill="url(#paint8_linear)" fill-opacity="0.16" />
  <defs>
    <linearGradient id="paint0_linear" x1="139" y1="55.5" x2="189.5" y2="207.5" gradientUnits="userSpaceOnUse">
      <stop stop-color="#26244B" />
      <stop offset="1" stop-color="#14132E" stop-opacity="0" />
    </linearGradient>
    <linearGradient id="paint1_linear" x1="176" y1="190" x2="280.5" y2="83.5" gradientUnits="userSpaceOnUse">
      <stop stop-color="#DFB895" stop-opacity="0" />
      <stop offset="0.399925" stop-color="#DFB895" stop-opacity="0.693815" />
      <stop offset="0.616116" stop-color="#DFB895" stop-opacity="0.01" />
      <stop offset="1" stop-color="#DFB895" stop-opacity="0" />
    </linearGradient>
    <linearGradient id="paint2_linear" x1="220.173" y1="200.638" x2="337.673" y2="183.638" gradientUnits="userSpaceOnUse">
      <stop stop-color="white" />
      <stop offset="1" stop-color="white" stop-opacity="0" />
    </linearGradient>
    <linearGradient id="paint3_linear" x1="224.5" y1="181" x2="309" y2="222" gradientUnits="userSpaceOnUse">
      <stop stop-color="#DFB895" stop-opacity="0.77" />
      <stop offset="1" stop-color="#DFB895" stop-opacity="0" />
    </linearGradient>
    <linearGradient id="paint4_linear" x1="256.523" y1="288.718" x2="-85.915" y2="210.77" gradientUnits="userSpaceOnUse">
      <stop stop-color="white" stop-opacity="0.26" />
      <stop offset="1" stop-color="white" stop-opacity="0" />
    </linearGradient>
    <linearGradient id="paint5_linear" x1="274.498" y1="260.398" x2="-21.6397" y2="238.538" gradientUnits="userSpaceOnUse">
      <stop stop-color="#DFB895" stop-opacity="0.13" />
      <stop offset="1" stop-color="#DFB895" stop-opacity="0" />
    </linearGradient>
    <linearGradient id="paint6_linear" x1="29" y1="120.5" x2="157" y2="190" gradientUnits="userSpaceOnUse">
      <stop offset="0.0950496" stop-color="white" />
      <stop offset="1" stop-color="white" stop-opacity="0" />
    </linearGradient>
    <linearGradient id="paint7_linear" x1="210.155" y1="-2.94203" x2="33.1851" y2="29.0812" gradientUnits="userSpaceOnUse">
      <stop stop-color="#DFB895" />
      <stop offset="1" stop-color="#DFB895" stop-opacity="0" />
    </linearGradient>
    <linearGradient id="paint8_linear" x1="374" y1="3.49998" x2="254" y2="32" gradientUnits="userSpaceOnUse">
      <stop stop-color="#DFB895" />
      <stop offset="1" stop-color="#DFB895" stop-opacity="0" />
    </linearGradient>
  </defs>
</svg>