<svg width="348" height="88" viewBox="0 0 348 88" fill="none" xmlns="http://www.w3.org/2000/svg">
<g opacity="0.6">
<mask id="mask0_8822_14453" style="mask-type:alpha" maskUnits="userSpaceOnUse" x="0" y="0" width="348" height="88">
<path d="M0 8C0 3.58172 3.58172 0 8 0H340C344.418 0 348 3.58172 348 8V88H0V8Z" fill="#F4F5F7"/>
</mask>
<g mask="url(#mask0_8822_14453)">
<path opacity="0.05" d="M71.2227 44L75.0195 26.0352H93.125L95.5508 14.8555H77.4102L79.4844 5.08203H99.5586L102.09 -6.73047H66.4766L55.6836 44H71.2227ZM134.961 31.8359H114.324L122.516 -6.73047H107.609L96.8164 44H132.359L134.961 31.8359ZM161.539 44.8789C173.141 44.8789 182.316 38.6211 184.531 28.1094L191.879 -6.73047H176.973L170.328 24.8047C169.273 29.7617 166.496 32.3281 162.172 32.3281C158.234 32.3281 155 30.0078 155 25.9648C155 25.1562 155.105 24.2422 155.316 23.2578L161.68 -6.73047H146.773L140.375 23.3984C140.059 24.875 139.918 26.3867 139.918 27.7227C139.918 37.8828 148.145 44.8789 161.539 44.8789ZM227.07 32.1875H206.188L207.945 23.9961H227.492L229.777 13.3086H210.23L211.953 5.08203H232.801L235.332 -6.73047H199.578L188.785 44H224.574L227.07 32.1875ZM245.492 44L251.363 16.1562H251.645L265.461 44H276.711L287.504 -6.73047H273.266L267.395 21.1133H267.113L253.297 -6.73047H242.047L231.254 44H245.492ZM310.953 44L319.215 5.08203H333.312L335.844 -6.73047H292.742L290.211 5.08203H304.309L296.047 44H310.953Z" fill="url(#paint0_linear_8822_14453)"/>
</g>
</g>
<defs>
<linearGradient id="paint0_linear_8822_14453" x1="195.043" y1="12.6287" x2="195.043" y2="53.1016" gradientUnits="userSpaceOnUse">
<stop offset="0.144462" stop-color="#3D3F4C"/>
<stop offset="0.833428" stop-color="#3D3F4C" stop-opacity="0"/>
</linearGradient>
</defs>
</svg>
