<svg width="14" height="14" viewBox="0 0 14 14" fill="none" xmlns="http://www.w3.org/2000/svg">
<g clip-path="url(#clip0_5528_11919)">
<path d="M7.2915 4.0835H3.7915" stroke="#F0955F" stroke-width="1.4"/>
<path d="M6.99984 1.75H4.6665" stroke="#F0955F" stroke-width="1.4"/>
<path d="M7.24542 -0.00018087L7.24542 1.95805L7.24542 4.36411L7.24542 7.18952M7.24542 7.18952C6.89283 7.18715 6.54325 7.25456 6.21682 7.38786C5.89038 7.52115 5.59354 7.7177 5.34338 7.96619C5.09322 8.21469 4.89468 8.51021 4.7592 8.83574C4.62372 9.16128 4.55397 9.51039 4.55397 9.863C4.55397 10.2156 4.62372 10.5647 4.7592 10.8903C4.89468 11.2158 5.09322 11.5113 5.34338 11.7598C5.59354 12.0083 5.89038 12.2048 6.21682 12.3381C6.54325 12.4714 6.89283 12.5388 7.24543 12.5365C7.94634 12.5243 8.61443 12.2373 9.1058 11.7373C9.59717 11.2373 9.8725 10.5644 9.8725 9.86334C9.8725 9.16232 9.59717 8.48934 9.1058 7.98936C8.61443 7.48938 7.94634 7.20239 7.24542 7.1902L7.24542 7.18952Z" stroke="#7789D3" stroke-width="1.4" stroke-linecap="round" stroke-linejoin="round"/>
</g>
<defs>
<clipPath id="clip0_5528_11919">
<rect width="14" height="14" fill="white"/>
</clipPath>
</defs>
</svg>
