<svg width="10" height="11" viewBox="0 0 10 11" fill="none" xmlns="http://www.w3.org/2000/svg">
<path d="M0.605286 9.06789L1.25173 8.42145M1.25173 8.42145L2.39818 9.5679M1.25173 8.42145L2.64818 7.025M4.34963 5.32356C4.60436 5.58173 4.90765 5.78696 5.24202 5.92743C5.5764 6.06791 5.93526 6.14085 6.29794 6.14207C6.66063 6.14328 7.01997 6.07275 7.35528 5.93451C7.69059 5.79628 7.99524 5.59309 8.2517 5.33663C8.50816 5.08017 8.71135 4.77552 8.84958 4.44021C8.98781 4.1049 9.05835 3.74556 9.05714 3.38287C9.05592 3.02019 8.98298 2.66133 8.8425 2.32695C8.70203 1.99258 8.4968 1.68929 8.23863 1.43456C7.71997 0.933621 7.02531 0.656436 6.30427 0.662702C5.58323 0.668967 4.8935 0.958182 4.38362 1.46805C3.87375 1.97793 3.58454 2.66766 3.57827 3.3887C3.57201 4.10974 3.84919 4.8044 4.35013 5.32306L4.34963 5.32356ZM4.34963 5.32356L2.64818 7.025M2.64818 7.025L4.14818 8.525" stroke="#3D3F4C" stroke-linecap="round" stroke-linejoin="round"/>
</svg>
