<svg width="613" height="118" viewBox="0 0 613 118" fill="none" xmlns="http://www.w3.org/2000/svg">
<path d="M422.318 87.9601H416.078L404 31.3982H410.239L419.758 77.5745L433.596 31.3982H439.596L453.434 77.4147L463.033 31.3982H469.032L456.953 87.9601H450.714L436.556 39.9464L422.318 87.9601Z" fill="black"/>
<path d="M485.901 88.04C481.528 88.04 477.955 86.9216 475.182 84.6847C472.463 82.4478 471.103 79.5451 471.103 75.9767C471.103 72.2485 472.543 69.2926 475.422 67.1089C478.302 64.872 482.195 63.7535 487.101 63.7535C489.234 63.7535 491.287 63.9932 493.26 64.4725C495.286 64.9519 497.153 65.6176 498.859 66.4698V61.1971C498.859 58.0015 497.953 55.6048 496.14 54.007C494.327 52.3559 491.687 51.5304 488.221 51.5304C486.248 51.5304 484.248 51.8233 482.221 52.4092C480.248 52.9418 478.062 53.8206 475.662 55.0455L473.423 50.4918C476.302 49.1071 478.969 48.0951 481.422 47.456C483.875 46.8169 486.328 46.4973 488.781 46.4973C493.847 46.4973 497.739 47.6957 500.459 50.0924C503.232 52.4891 504.619 55.9243 504.619 60.3982V87.9601H498.859V83.4064C497.046 84.951 495.046 86.1227 492.86 86.9216C490.727 87.6672 488.407 88.04 485.901 88.04ZM476.782 75.8169C476.782 78.0538 477.715 79.8913 479.582 81.3293C481.502 82.714 483.955 83.4064 486.941 83.4064C489.341 83.4064 491.527 83.0336 493.5 82.288C495.473 81.5423 497.26 80.3706 498.859 78.7728V71.2632C497.206 70.1447 495.42 69.3458 493.5 68.8665C491.634 68.3339 489.554 68.0676 487.261 68.0676C484.061 68.0676 481.502 68.7866 479.582 70.2246C477.715 71.6094 476.782 73.4735 476.782 75.8169Z" fill="black"/>
<path d="M520.427 30.04V87.9601H514.507V31.3982L520.427 30.04Z" fill="black"/>
<path d="M536.44 30.04V87.9601H530.521V31.3982L536.44 30.04Z" fill="black"/>
<path d="M580.29 83.0869C578.051 84.7379 575.704 85.9895 573.251 86.8417C570.852 87.6406 568.212 88.04 565.332 88.04C562.453 88.04 559.733 87.5074 557.173 86.4422C554.667 85.377 552.481 83.9124 550.614 82.0483C548.801 80.1842 547.361 78.0006 546.295 75.4973C545.228 72.9409 544.695 70.198 544.695 67.2687C544.695 64.3927 545.201 61.703 546.215 59.1998C547.281 56.6966 548.694 54.5129 550.454 52.6489C552.214 50.7848 554.294 49.3201 556.693 48.2549C559.146 47.1897 561.733 46.6571 564.452 46.6571C567.119 46.6571 569.598 47.1897 571.891 48.2549C574.238 49.3201 576.238 50.7848 577.891 52.6489C579.597 54.5129 580.93 56.6966 581.89 59.1998C582.903 61.703 583.41 64.3927 583.41 67.2687V69.1062H550.534C550.961 73.0474 552.587 76.3229 555.413 78.9326C558.24 81.5423 561.626 82.8472 565.572 82.8472C567.652 82.8472 569.678 82.5276 571.651 81.8885C573.625 81.2494 575.278 80.344 576.611 79.1723L580.29 83.0869ZM564.292 51.85C560.826 51.85 557.813 53.0217 555.254 55.3651C552.747 57.7085 551.227 60.7177 550.694 64.3927H577.491C576.957 60.8775 575.438 57.9216 572.931 55.5249C570.478 53.0749 567.599 51.85 564.292 51.85Z" fill="black"/>
<path d="M595.082 78.3734V52.3293H586.443V47.2962H595.082V37.1502L600.922 35.6323V47.2962H613V52.3293H600.922V76.8555C600.922 78.9859 601.401 80.5304 602.361 81.4891C603.321 82.3945 604.894 82.8472 607.081 82.8472C608.201 82.8472 609.187 82.7673 610.04 82.6075C610.947 82.4477 611.907 82.1815 612.92 81.8086V87.0015C611.907 87.3743 610.76 87.6406 609.48 87.8004C608.254 87.9601 607.054 88.04 605.881 88.04C602.415 88.04 599.748 87.2145 597.882 85.5635C596.015 83.9124 595.082 81.5157 595.082 78.3734Z" fill="black"/>
<path d="M201.777 88.04V29L190.816 31.4V88.04H201.777Z" fill="black"/>
<path d="M142 31.4V88.04H153.601V64.44L164.824 64.44V64.4247L168.046 64.4249L168.155 64.424C171.631 64.3676 174.455 61.6271 174.643 58.185V54.68H153.601V41.48L175.133 41.48V41.4747L178.463 41.4749L178.576 41.4739C182.172 41.4157 185.092 38.5789 185.284 35.0171V31.4H142Z" fill="black"/>
<path d="M220.99 45.72V69.96C220.99 72.6267 221.763 74.76 223.31 76.36C224.91 77.96 227.017 78.76 229.63 78.76C231.497 78.76 233.151 78.4133 234.591 77.72C236.084 76.9733 237.311 75.9333 238.271 74.6V45.72H249.232V88.04H238.271V84.04C236.671 85.3733 234.884 86.4133 232.911 87.16C230.937 87.8533 228.804 88.2 226.51 88.2C221.71 88.2 217.763 86.6533 214.669 83.56C211.575 80.4133 210.029 76.4133 210.029 71.56V45.72H220.99Z" fill="black"/>
<path fill-rule="evenodd" clip-rule="evenodd" d="M287.217 86.76C289.938 85.8 292.578 84.28 295.138 82.2L287.937 75.64C286.817 76.7067 285.457 77.5333 283.857 78.12C282.257 78.7067 280.55 79 278.737 79C275.856 79 273.349 78.2 271.216 76.6C269.082 75 267.642 72.8933 266.896 70.28L293.042 70.28C295.542 70.0652 298.014 68.5 297.885 65.6713C297.726 63.1272 297.21 60.7434 296.338 58.52C295.325 55.7467 293.885 53.3733 292.018 51.4C290.204 49.4267 288.017 47.88 285.457 46.76C282.95 45.5867 280.23 45 277.297 45C274.31 45 271.483 45.56 268.816 46.68C266.202 47.8 263.935 49.3467 262.015 51.32C260.095 53.24 258.575 55.5333 257.455 58.2C256.388 60.8133 255.855 63.6133 255.855 66.6C255.855 69.64 256.415 72.4933 257.535 75.16C258.708 77.7733 260.282 80.04 262.255 81.96C264.282 83.88 266.656 85.4 269.376 86.52C272.149 87.64 275.11 88.2 278.257 88.2C281.564 88.2 284.55 87.72 287.217 86.76ZM270.576 56.36C272.389 54.8133 274.55 54.04 277.056 54.04C279.457 54.04 281.564 54.84 283.377 56.44C285.244 57.9867 286.524 59.9867 287.217 62.44H266.816C267.509 59.88 268.762 57.8533 270.576 56.36Z" fill="black"/>
<path d="M304.654 88.04V45.72H315.615V49C317.215 47.6667 318.975 46.6533 320.895 45.96C322.869 45.2667 325.002 44.92 327.296 44.92C332.096 44.92 336.043 46.4667 339.137 49.56C342.231 52.6533 343.777 56.6267 343.777 61.48V88.04H332.816V63.08C332.816 60.4667 332.016 58.36 330.416 56.76C328.869 55.16 326.789 54.36 324.176 54.36C322.362 54.36 320.709 54.7333 319.215 55.48C317.775 56.1733 316.575 57.1867 315.615 58.52V88.04H304.654Z" fill="black"/>
<path d="M356.198 55.46V75.64C356.198 79.6933 357.371 82.7867 359.718 84.92C362.118 87 365.639 88.04 370.279 88.04C371.453 88.04 372.866 87.9067 374.52 87.64C376.173 87.4267 377.587 87.1333 378.76 86.76V77.8C377.693 78.1733 376.706 78.44 375.8 78.6C374.893 78.7067 373.933 78.76 372.919 78.76C370.786 78.76 369.292 78.36 368.439 77.56C367.586 76.76 367.159 75.3733 367.159 73.4V55.46H372.65C376.137 55.3268 378.932 52.4918 379 48.9889V45.72H367.159V32.6L356.198 35.08V45.72H347.637V55.46H356.198Z" fill="black"/>
<path d="M118 0V18.9837C118 40.8355 100.448 58.5911 78.6617 58.9441L78.0003 58.9494L58.9996 58.9505V77.9818C58.9996 100.464 41.151 117.999 19.1627 117.999H0V98.4518C0 98.3643 0.000280365 98.277 0.000840245 98.1897V55.952C0.000840245 25.0506 25.0727 0 56.0004 0H118Z" fill="white"/>
<path fill-rule="evenodd" clip-rule="evenodd" d="M92.6697 0H118V18.9822C118 41.4644 100.151 58.9996 78.1627 58.9996H77.5012H59V39.4677C59 19.5483 73.5862 3.03248 92.6697 0Z" fill="#242265" fill-opacity="0.8"/>
<path d="M118 0V18.9837C118 40.8355 100.448 58.5911 78.6617 58.9441L78.0003 58.9494L58.9996 58.9505V77.9818C58.9996 100.464 41.151 117.999 19.1627 117.999H0V98.4518C0 98.3643 0.000280365 98.277 0.000840245 98.1897V55.952C0.000840245 25.0506 25.0727 0 56.0004 0H118Z" fill="#616EE1" fill-opacity="0.8"/>
</svg>
