<svg width="200" height="160" viewBox="0 0 200 160" fill="none" xmlns="http://www.w3.org/2000/svg">
<path d="M114.865 145.89H112.795L108.788 127.143H110.858L114.016 142.448L118.607 127.143H120.597L125.188 142.395L128.372 127.143H130.363L126.356 145.89H124.286L119.589 129.976L114.865 145.89Z" fill="white"/>
<path d="M135.959 145.916C134.509 145.916 133.323 145.545 132.403 144.804C131.501 144.063 131.05 143.101 131.05 141.918C131.05 140.682 131.528 139.703 132.483 138.979C133.438 138.237 134.73 137.867 136.357 137.867C137.065 137.867 137.746 137.946 138.401 138.105C139.073 138.264 139.692 138.485 140.258 138.767V137.02C140.258 135.96 139.957 135.166 139.356 134.637C138.754 134.089 137.879 133.816 136.729 133.816C136.074 133.816 135.411 133.913 134.738 134.107C134.084 134.284 133.359 134.575 132.562 134.981L131.819 133.472C132.775 133.013 133.659 132.677 134.473 132.465C135.287 132.254 136.101 132.148 136.915 132.148C138.595 132.148 139.887 132.545 140.789 133.339C141.709 134.133 142.169 135.272 142.169 136.755V145.89H140.258V144.38C139.657 144.892 138.993 145.281 138.268 145.545C137.56 145.793 136.791 145.916 135.959 145.916ZM132.934 141.865C132.934 142.606 133.244 143.215 133.863 143.692C134.5 144.151 135.313 144.38 136.304 144.38C137.1 144.38 137.826 144.257 138.48 144.01C139.135 143.763 139.728 143.374 140.258 142.845V140.356C139.71 139.985 139.117 139.72 138.48 139.561C137.861 139.385 137.171 139.297 136.41 139.297C135.349 139.297 134.5 139.535 133.863 140.012C133.244 140.47 132.934 141.088 132.934 141.865Z" fill="white"/>
<path d="M147.413 126.693V145.89H145.449V127.143L147.413 126.693Z" fill="white"/>
<path d="M152.726 126.693V145.89H150.762V127.143L152.726 126.693Z" fill="white"/>
<path d="M167.274 144.275C166.53 144.822 165.752 145.236 164.938 145.519C164.142 145.784 163.266 145.916 162.311 145.916C161.356 145.916 160.453 145.74 159.604 145.387C158.773 145.034 158.047 144.548 157.428 143.93C156.827 143.312 156.349 142.589 155.995 141.759C155.641 140.912 155.464 140.003 155.464 139.032C155.464 138.079 155.633 137.187 155.969 136.358C156.322 135.528 156.791 134.804 157.375 134.187C157.959 133.569 158.649 133.083 159.445 132.73C160.259 132.377 161.117 132.201 162.019 132.201C162.904 132.201 163.726 132.377 164.487 132.73C165.266 133.083 165.929 133.569 166.477 134.187C167.043 134.804 167.486 135.528 167.804 136.358C168.14 137.187 168.308 138.079 168.308 139.032V139.641H157.402C157.543 140.947 158.083 142.033 159.02 142.898C159.958 143.763 161.081 144.195 162.391 144.195C163.081 144.195 163.753 144.089 164.408 143.877C165.062 143.666 165.61 143.365 166.053 142.977L167.274 144.275ZM161.966 133.922C160.816 133.922 159.817 134.31 158.967 135.087C158.136 135.863 157.632 136.861 157.455 138.079H166.345C166.168 136.914 165.664 135.934 164.832 135.14C164.018 134.328 163.063 133.922 161.966 133.922Z" fill="white"/>
<path d="M172.18 142.712V134.081H169.314V132.412H172.18V129.05L174.118 128.547V132.412H178.125V134.081H174.118V142.209C174.118 142.915 174.277 143.427 174.595 143.745C174.914 144.045 175.436 144.195 176.161 144.195C176.533 144.195 176.86 144.169 177.143 144.116C177.444 144.063 177.762 143.974 178.098 143.851V145.572C177.762 145.695 177.382 145.784 176.957 145.837C176.55 145.89 176.152 145.916 175.763 145.916C174.613 145.916 173.729 145.643 173.109 145.095C172.49 144.548 172.18 143.754 172.18 142.712Z" fill="white"/>
<path d="M41.7031 145.898V126.349L38.0674 127.144V145.898H41.7031Z" fill="white"/>
<path d="M21.875 127.144V145.898H25.7232V138.084H29.4461V138.079L30.5145 138.079L30.5508 138.078C31.7039 138.06 32.6404 137.152 32.7029 136.013V134.852H25.7232V130.481H32.8652V130.479L33.9699 130.48L34.0074 130.479C35.2002 130.46 36.1691 129.521 36.2326 128.341V127.144H21.875Z" fill="white"/>
<path d="M48.0762 131.885V139.912C48.0762 140.795 48.3328 141.501 48.8459 142.031C49.3766 142.561 50.0756 142.825 50.9424 142.825C51.5617 142.825 52.1102 142.711 52.5879 142.481C53.0832 142.234 53.4902 141.89 53.8086 141.448V131.885H57.4445V145.898H53.8086V144.574C53.2779 145.015 52.6852 145.36 52.0305 145.607C51.376 145.837 50.6682 145.951 49.9074 145.951C48.315 145.951 47.0059 145.439 45.9797 144.415C44.9535 143.373 44.4404 142.048 44.4404 140.441V131.885H48.0762Z" fill="white"/>
<path fill-rule="evenodd" clip-rule="evenodd" d="M70.0449 145.474C70.9473 145.157 71.823 144.653 72.6723 143.965L70.2838 141.792C69.9121 142.146 69.4609 142.419 68.9303 142.613C68.3994 142.808 67.8334 142.905 67.2318 142.905C66.2764 142.905 65.4447 142.64 64.7371 142.11C64.0293 141.581 63.5518 140.883 63.3039 140.018H71.9771C72.8061 139.946 73.6262 139.428 73.5834 138.492C73.5307 137.649 73.3596 136.86 73.0703 136.124C72.7342 135.205 72.2564 134.419 71.6373 133.766C71.0357 133.113 70.3104 132.6 69.4609 132.229C68.6295 131.841 67.7271 131.647 66.7541 131.647C65.7633 131.647 64.8256 131.832 63.941 132.203C63.074 132.574 62.3221 133.086 61.6852 133.74C61.0482 134.375 60.5439 135.135 60.1725 136.018C59.8186 136.883 59.6416 137.81 59.6416 138.799C59.6416 139.806 59.8273 140.75 60.199 141.633C60.5881 142.499 61.1102 143.249 61.7646 143.885C62.4371 144.521 63.2244 145.024 64.1268 145.395C65.0467 145.766 66.0287 145.951 67.0725 145.951C68.1695 145.951 69.1603 145.792 70.0449 145.474ZM64.5248 135.408C65.1264 134.896 65.843 134.64 66.6744 134.64C67.4707 134.64 68.1695 134.905 68.7711 135.435C69.3902 135.947 69.8148 136.609 70.0449 137.421H63.2775C63.5074 136.574 63.9232 135.903 64.5248 135.408Z" fill="white"/>
<path d="M75.8286 145.898V131.885H79.4646V132.971C79.9952 132.53 80.5792 132.194 81.2161 131.965C81.8706 131.735 82.5784 131.62 83.3392 131.62C84.9315 131.62 86.2407 132.132 87.2669 133.157C88.2931 134.181 88.8062 135.497 88.8062 137.104V145.898H85.1704V137.633C85.1704 136.768 84.905 136.071 84.3741 135.541C83.861 135.011 83.171 134.746 82.3042 134.746C81.7026 134.746 81.1542 134.87 80.6587 135.117C80.181 135.347 79.7829 135.682 79.4646 136.124V145.898H75.8286Z" fill="white"/>
<path d="M92.9261 135.11V141.792C92.9261 143.134 93.3153 144.159 94.0938 144.865C94.8901 145.554 96.0577 145.898 97.597 145.898C97.9862 145.898 98.4552 145.854 99.0036 145.766C99.552 145.695 100.021 145.598 100.41 145.474V142.508C100.056 142.631 99.729 142.719 99.4282 142.772C99.1274 142.808 98.8089 142.825 98.4727 142.825C97.7651 142.825 97.2696 142.693 96.9866 142.428C96.7036 142.163 96.562 141.704 96.562 141.051V135.11H98.3835C99.5403 135.066 100.467 134.127 100.49 132.968V131.885H96.562V127.541L92.9261 128.362V131.885H90.0864V135.11H92.9261Z" fill="white"/>
<path d="M146.876 18.7317V33.7994C146.876 51.1436 132.931 65.2367 115.622 65.5169L115.096 65.5212L100 65.5219V80.6275C100 98.4722 85.8193 112.39 68.3498 112.39H53.125V96.8749C53.125 96.8056 53.1254 96.7362 53.1258 96.6669V63.142C53.1258 38.6148 73.0453 18.7317 97.6172 18.7317H146.876Z" fill="white"/>
<path fill-rule="evenodd" clip-rule="evenodd" d="M126.751 18.7317H146.875V33.7982C146.875 51.6429 132.694 65.561 115.225 65.561H114.699H100V50.0582C100 34.2476 111.589 21.1387 126.751 18.7317Z" fill="#242265" fill-opacity="0.8"/>
<path d="M146.876 18.7317V33.7994C146.876 51.1436 132.931 65.2367 115.622 65.5169L115.096 65.5212L100 65.5219V80.6275C100 98.4722 85.8193 112.39 68.3498 112.39H53.125V96.8749C53.125 96.8056 53.1254 96.7362 53.1258 96.6669V63.142C53.1258 38.6148 73.0453 18.7317 97.6172 18.7317H146.876Z" fill="#616EE1" fill-opacity="0.8"/>
</svg>
