<svg width="56" height="56" viewBox="0 0 56 56" fill="none" xmlns="http://www.w3.org/2000/svg">
<path d="M56.0004 0V9.00928C56.0004 19.3797 47.6705 27.8061 37.3312 27.9736L37.0173 27.9762L28 27.9767V37.0085C28 47.6782 19.5294 56 9.09423 56H4.76837e-07V46.7232C4.76837e-07 46.6817 0.000133532 46.6402 0.00039924 46.5988V26.5537C0.00039924 11.8885 11.899 0 26.5767 0H56.0004Z" fill="white"/>
<path fill-rule="evenodd" clip-rule="evenodd" d="M43.979 0H56V9.00854C56 19.6782 47.5294 28 37.0942 28H36.7803H28V18.7306C28 9.2772 34.9223 1.43915 43.979 0Z" fill="#242265" fill-opacity="0.8"/>
<path d="M56.0004 0V9.00928C56.0004 19.3797 47.6705 27.8061 37.3312 27.9736L37.0173 27.9762L28 27.9767V37.0085C28 47.6782 19.5294 56 9.09423 56H4.76837e-07V46.7232C4.76837e-07 46.6817 0.000133532 46.6402 0.00039924 46.5988V26.5537C0.00039924 11.8885 11.899 0 26.5767 0H56.0004Z" fill="#616EE1" fill-opacity="0.8"/>
</svg>
