<svg width="104" height="20" viewBox="0 0 104 20" fill="none" xmlns="http://www.w3.org/2000/svg">
<path d="M71.5798 14.9086H70.5223L68.475 5.32174H69.5325L71.1459 13.1483L73.4914 5.32174H74.5082L76.8537 13.1212L78.4806 5.32174H79.4975L77.4502 14.9086H76.3927L73.993 6.7706L71.5798 14.9086Z" fill="white"/>
<path d="M82.3566 14.9221C81.6155 14.9221 81.0099 14.7326 80.5399 14.3534C80.079 13.9743 79.8485 13.4823 79.8485 12.8775C79.8485 12.2456 80.0925 11.7446 80.5806 11.3745C81.0687 10.9953 81.7285 10.8057 82.56 10.8057C82.9216 10.8057 83.2695 10.8464 83.604 10.9276C83.9474 11.0089 84.2638 11.1217 84.553 11.2661V10.3724C84.553 9.83081 84.3993 9.42459 84.092 9.15377C83.7847 8.87393 83.3373 8.73401 82.7498 8.73401C82.4154 8.73401 82.0765 8.78366 81.733 8.88296C81.3986 8.97323 81.028 9.12218 80.6213 9.3298L80.2416 8.55798C80.7297 8.32327 81.1816 8.15176 81.5974 8.04343C82.0132 7.93511 82.429 7.88094 82.8447 7.88094C83.7034 7.88094 84.3632 8.08405 84.8241 8.49028C85.2941 8.8965 85.5291 9.47875 85.5291 10.237V14.9086H84.553V14.1368C84.2457 14.3986 83.9067 14.5971 83.5362 14.7326C83.1746 14.8589 82.7815 14.9221 82.3566 14.9221ZM80.8111 12.8504C80.8111 13.2295 80.9692 13.541 81.2856 13.7847C81.611 14.0194 82.0267 14.1368 82.5329 14.1368C82.9396 14.1368 83.3102 14.0736 83.6446 13.9472C83.9791 13.8208 84.2818 13.6222 84.553 13.3514V12.0786C84.2728 11.889 83.97 11.7536 83.6446 11.6723C83.3283 11.5821 82.9758 11.5369 82.5871 11.5369C82.0448 11.5369 81.611 11.6588 81.2856 11.9025C80.9692 12.1372 80.8111 12.4532 80.8111 12.8504Z" fill="white"/>
<path d="M88.2085 5.09155V14.9086H87.2052V5.32174L88.2085 5.09155Z" fill="white"/>
<path d="M90.9227 5.09155V14.9086H89.9194V5.32174L90.9227 5.09155Z" fill="white"/>
<path d="M98.355 14.0826C97.9753 14.3624 97.5776 14.5746 97.1619 14.719C96.7551 14.8544 96.3077 14.9221 95.8197 14.9221C95.3316 14.9221 94.8706 14.8319 94.4368 14.6513C94.012 14.4708 93.6414 14.2225 93.325 13.9066C93.0177 13.5906 92.7737 13.2205 92.5929 12.7962C92.4122 12.3629 92.3218 11.898 92.3218 11.4015C92.3218 10.9141 92.4076 10.4582 92.5794 10.0339C92.7601 9.60964 92.9997 9.23953 93.2979 8.92358C93.5962 8.60763 93.9487 8.35938 94.3554 8.17884C94.7712 7.9983 95.2096 7.90803 95.6705 7.90803C96.1224 7.90803 96.5427 7.9983 96.9314 8.17884C97.3291 8.35938 97.668 8.60763 97.9482 8.92358C98.2375 9.23953 98.4634 9.60964 98.6261 10.0339C98.7978 10.4582 98.8837 10.9141 98.8837 11.4015V11.713H93.3115C93.3838 12.381 93.6595 12.9362 94.1385 13.3785C94.6175 13.8208 95.1915 14.042 95.8603 14.042C96.2128 14.042 96.5563 13.9878 96.8907 13.8795C97.2251 13.7712 97.5053 13.6177 97.7313 13.4191L98.355 14.0826ZM95.6434 8.78817C95.0559 8.78817 94.5452 8.98677 94.1114 9.38397C93.6866 9.78116 93.429 10.2912 93.3386 10.9141H97.8804C97.79 10.3183 97.5325 9.81727 97.1076 9.41105C96.6919 8.9958 96.2038 8.78817 95.6434 8.78817Z" fill="white"/>
<path d="M100.862 13.2837V8.86942H99.3978V8.01635H100.862V6.29668L101.852 6.0394V8.01635H103.899V8.86942H101.852V13.0264C101.852 13.3875 101.933 13.6493 102.096 13.8118C102.259 13.9652 102.525 14.042 102.896 14.042C103.086 14.042 103.253 14.0284 103.397 14.0014C103.551 13.9743 103.714 13.9291 103.885 13.8659V14.7461C103.714 14.8093 103.519 14.8544 103.302 14.8815C103.095 14.9086 102.891 14.9221 102.692 14.9221C102.105 14.9221 101.653 14.7822 101.337 14.5024C101.02 14.2225 100.862 13.8163 100.862 13.2837Z" fill="white"/>
<path d="M34.1996 14.9221V4.91528L32.3418 5.32207V14.9221H34.1996Z" fill="white"/>
<path d="M24.0679 5.32207V14.9221H26.0342V10.9221L27.9365 10.9221V10.9195L28.4825 10.9195L28.501 10.9194C29.0902 10.9098 29.5687 10.4453 29.6007 9.86192V9.26785H26.0342V7.03055L29.6837 7.03055V7.02965L30.2481 7.02968L30.2672 7.02953C30.8768 7.01965 31.3718 6.53884 31.4042 5.93513V5.32207H24.0679Z" fill="white"/>
<path d="M37.4561 7.7492V11.8577C37.4561 12.3097 37.5872 12.6713 37.8493 12.9425C38.1206 13.2136 38.4776 13.3492 38.9206 13.3492C39.237 13.3492 39.5173 13.2905 39.7614 13.173C40.0145 13.0464 40.2225 12.8701 40.3852 12.6441V7.7492H42.243V14.9221H40.3852V14.2442C40.114 14.4701 39.8111 14.6464 39.4766 14.773C39.1421 14.8905 38.7805 14.9492 38.3918 14.9492C37.5781 14.9492 36.9091 14.6871 36.3848 14.1628C35.8604 13.6295 35.5983 12.9515 35.5983 12.1289V7.7492H37.4561Z" fill="white"/>
<path fill-rule="evenodd" clip-rule="evenodd" d="M48.6812 14.7052C49.1423 14.5425 49.5898 14.2848 50.0237 13.9323L48.8033 12.8204C48.6134 13.0012 48.3829 13.1413 48.1117 13.2408C47.8404 13.3402 47.5512 13.3899 47.2438 13.3899C46.7556 13.3899 46.3307 13.2543 45.9691 12.9831C45.6075 12.7119 45.3634 12.3549 45.2368 11.9119L49.6685 11.9119C50.0921 11.8755 50.5112 11.6102 50.4893 11.1308C50.4623 10.6996 50.3749 10.2956 50.2271 9.9187C50.0554 9.44865 49.8113 9.04638 49.4948 8.71192C49.1875 8.37745 48.8168 8.1153 48.3829 7.92547C47.958 7.7266 47.4969 7.62716 46.9997 7.62716C46.4934 7.62716 46.0143 7.72208 45.5623 7.91191C45.1193 8.10174 44.7351 8.36389 44.4096 8.69836C44.0842 9.02378 43.8265 9.41249 43.6367 9.86447C43.4558 10.3074 43.3654 10.782 43.3654 11.2882C43.3654 11.8035 43.4604 12.2871 43.6502 12.7391C43.8491 13.182 44.1158 13.5662 44.4503 13.8916C44.7938 14.217 45.1961 14.4747 45.6572 14.6645C46.1273 14.8543 46.629 14.9492 47.1624 14.9492C47.7229 14.9492 48.2292 14.8679 48.6812 14.7052ZM45.8606 9.5526C46.168 9.29045 46.5341 9.15938 46.959 9.15938C47.3658 9.15938 47.7229 9.29497 48.0303 9.56616C48.3467 9.82831 48.5637 10.1673 48.6812 10.5831H45.2232C45.3408 10.1492 45.5532 9.80571 45.8606 9.5526Z" fill="white"/>
<path d="M51.6366 14.9221V7.7492H53.4944V8.30514C53.7656 8.07915 54.0639 7.90739 54.3894 7.78988C54.7239 7.67236 55.0855 7.61361 55.4742 7.61361C56.2879 7.61361 56.9569 7.87575 57.4812 8.40005C58.0056 8.92435 58.2677 9.5978 58.2677 10.4204V14.9221H56.4099V10.6916C56.4099 10.2487 56.2743 9.89159 56.0031 9.6204C55.7409 9.34921 55.3883 9.21362 54.9454 9.21362C54.638 9.21362 54.3577 9.27689 54.1046 9.40345C53.8605 9.52096 53.6571 9.69272 53.4944 9.9187V14.9221H51.6366Z" fill="white"/>
<path d="M60.3729 9.40006V12.8204C60.3729 13.5074 60.5718 14.0317 60.9696 14.3933C61.3764 14.7459 61.9731 14.9221 62.7596 14.9221C62.9585 14.9221 63.198 14.8995 63.4783 14.8543C63.7585 14.8182 63.9981 14.7685 64.197 14.7052V13.1865C64.0162 13.2498 63.8489 13.295 63.6953 13.3221C63.5416 13.3402 63.3788 13.3492 63.2071 13.3492C62.8455 13.3492 62.5923 13.2814 62.4477 13.1458C62.303 13.0103 62.2307 12.7752 62.2307 12.4408V9.40006H63.1615C63.7525 9.37749 64.2262 8.89697 64.2377 8.30325V7.7492H62.2307V5.52546L60.3729 5.9458V7.7492H58.9219V9.40006H60.3729Z" fill="white"/>
<path d="M20.0001 0V3.2176C20.0001 6.92131 17.0252 9.93077 13.3326 9.99059L13.2205 9.9915L9.99999 9.99167V13.2173C9.99999 17.0279 6.97479 20 3.24794 20H0V16.6868C0 16.672 4.75198e-05 16.6572 0.000142415 16.6424V9.48345C0.000142415 4.24589 4.24964 0 9.49166 0H20.0001Z" fill="white"/>
<path fill-rule="evenodd" clip-rule="evenodd" d="M15.7068 0H20V3.21734C20 7.02792 16.9748 10 13.2479 10H13.1358H10V6.68948C10 3.31329 12.4723 0.513983 15.7068 0Z" fill="#242265" fill-opacity="0.8"/>
<path d="M20.0001 0V3.2176C20.0001 6.92131 17.0252 9.93077 13.3326 9.99059L13.2205 9.9915L9.99999 9.99167V13.2173C9.99999 17.0279 6.97479 20 3.24794 20H0V16.6868C0 16.672 4.75198e-05 16.6572 0.000142415 16.6424V9.48345C0.000142415 4.24589 4.24964 0 9.49166 0H20.0001Z" fill="#616EE1" fill-opacity="0.8"/>
</svg>
