<svg width="33" height="25" viewBox="0 0 33 25" fill="none" xmlns="http://www.w3.org/2000/svg">
<path d="M21.5 20.5H5.5L5 18.5H21H23L25 16.5H29.5L27 20.5H21.5Z" fill="#DCE3FF"/>
<path d="M12.4704 9.65039H8.73535" stroke="#808BE7" stroke-linecap="round"/>
<path d="M23.6758 18.1032L24.5584 16.7793C24.7439 16.5011 25.0561 16.334 25.3905 16.334H29.8443C30.5013 16.334 30.9675 16.9541 30.7138 17.5602C30.2326 18.7096 29.4026 20.2396 28.1971 21.4451C26.4672 23.175 25.2484 23.3454 24.8553 23.2143" stroke="#808BE7" stroke-linecap="round"/>
<path d="M28.9832 20.2656H25.8379" stroke="#808BE7" stroke-linecap="round"/>
<path d="M5.39355 20.4625V18.1035H21.7098C21.7753 18.9554 21.7098 19.0864 21.7098 20.8557C21.7098 23.2146 19.2853 23.4767 18.7611 23.4112C15.2881 23.6078 9.16791 23.6864 7.75253 23.2146C6.33714 22.7428 5.39355 21.8386 5.39355 20.4625Z" stroke="#808BE7"/>
<rect x="7" y="22" width="13" height="3" fill="#F8F9FE"/>
<path d="M21.1653 20.1994L20.757 20.4615C20.8024 20.6799 21.0564 21.1168 21.7097 21.1168C22.3629 21.1168 22.7077 20.7673 22.7984 20.5926L22.3901 20.3305V20.0684H23.4789V20.3305L23.2067 20.5926C23.116 20.9421 22.6895 21.641 21.7097 21.641C20.7298 21.641 20.3941 20.9421 20.3487 20.5926L19.9404 20.3305V20.0684H21.1653V20.1994Z" fill="#808BE7"/>
<path d="M5.58984 20.2656H17.9745" stroke="#808BE7" stroke-linecap="round"/>
<path d="M15 2V14L16.5317 13.5381C18.0634 13.0672 21.1028 12.1731 20 8.5C18.8972 4.82686 16.1233 2.64751 15 2Z" fill="#DCE3FF"/>
<path d="M14.8291 18.1026V1C16.2707 1.7208 19.5077 4.18462 20.9231 8.2735C22.3385 12.3624 18.7607 14.433 16.7949 14.9573" stroke="#808BE7" stroke-linecap="round"/>
<path d="M12.4699 4.3418H9.71777" stroke="#808BE7" stroke-linecap="round"/>
<path d="M12.6667 7.09375H6.96582" stroke="#808BE7" stroke-linecap="round"/>
<path fill-rule="evenodd" clip-rule="evenodd" d="M32.9928 23.3405C32.8366 23.3956 32.6686 23.4256 32.4935 23.4256C31.8399 23.4256 31.2845 23.008 31.079 22.4258H29.4086C29.2031 23.008 28.6477 23.4256 27.9941 23.4256C27.3406 23.4256 26.7851 23.008 26.5797 22.4258H24.9092C24.7037 23.008 24.1483 23.4256 23.4947 23.4256C22.8412 23.4256 22.2858 23.008 22.0803 22.4258H20.4098C20.2043 23.008 19.6489 23.4256 18.9954 23.4256C18.3418 23.4256 17.7864 23.008 17.5809 22.4258H15.9117C15.7062 23.008 15.1508 23.4256 14.4972 23.4256C13.8437 23.4256 13.2882 23.008 13.0828 22.4258H11.4136C11.2081 23.008 10.6526 23.4256 9.99908 23.4256C9.34552 23.4256 8.7901 23.008 8.58461 22.4258H6.91417C6.70868 23.008 6.15327 23.4256 5.4997 23.4256C4.84614 23.4256 4.29072 23.008 4.08523 22.4258H2.41479C2.2093 23.008 1.65389 23.4256 1.00032 23.4256C0.615821 23.4256 0.265291 23.2811 0 23.0435V24.2175C0.306307 24.3513 0.644638 24.4256 1.00032 24.4256C1.98981 24.4256 2.845 23.8509 3.25001 23.0173C3.65502 23.8509 4.51022 24.4256 5.4997 24.4256C6.48919 24.4256 7.34438 23.8509 7.74939 23.0173C8.1544 23.8509 9.0096 24.4256 9.99908 24.4256C10.9881 24.4256 11.8429 23.8515 12.2482 23.0185C12.6534 23.8515 13.5082 24.4256 14.4972 24.4256C15.4862 24.4256 16.341 23.8515 16.7463 23.0185C17.1516 23.8515 18.0064 24.4256 18.9954 24.4256C19.9849 24.4256 20.84 23.8509 21.2451 23.0173C21.6501 23.8509 22.5053 24.4256 23.4947 24.4256C24.4842 24.4256 25.3394 23.8509 25.7444 23.0173C26.1494 23.8509 27.0046 24.4256 27.9941 24.4256C28.9836 24.4256 29.8388 23.8509 30.2438 23.0173C30.6488 23.8509 31.504 24.4256 32.4935 24.4256C32.6645 24.4256 32.8315 24.4084 32.9928 24.3757V23.3405Z" fill="#808BE7"/>
</svg>
