<svg width="16" height="16" viewBox="0 0 16 16" fill="none" xmlns="http://www.w3.org/2000/svg">
<path d="M11.9312 1.95605H4.10895C3.47655 1.95605 2.92395 2.49425 2.92395 3.10985V12.8023C2.92395 13.4179 3.47715 13.9561 4.10895 13.9561H11.9312C12.5636 13.9561 13.1162 13.4179 13.1162 12.8023V3.18665C13.1954 2.49485 12.6422 1.95605 11.9312 1.95605V1.95605ZM3.81015 3.27425C3.81015 3.04865 3.96495 2.89805 4.19655 2.89805H11.8442C12.0758 2.89805 12.2306 3.04865 12.2306 3.27425V10.9453C12.2306 11.1709 12.0758 11.3215 11.8442 11.3215H4.19655C3.96495 11.3215 3.81015 11.1709 3.81015 10.9453V3.27425ZM11.9312 13.2637H4.10895C3.87195 13.2637 3.71415 13.1101 3.71415 12.8791V12.1099C3.87195 12.1867 3.95115 12.1867 4.10895 12.1867H11.9312C12.089 12.1867 12.1682 12.1867 12.326 12.1099V12.8791C12.3266 13.1101 12.1682 13.2637 11.9312 13.2637V13.2637Z" fill="#898D9A"/>
<path d="M6.33337 9.66634V6.61079C6.33337 6.25017 6.45034 5.89928 6.66671 5.61079V5.61079C7.33337 4.7219 8.66671 4.7219 9.33337 5.61079V5.61079C9.54974 5.89928 9.66671 6.25017 9.66671 6.61079V9.66634" stroke="#808BE7" stroke-linecap="round"/>
<path d="M6.33337 8H9.66671" stroke="#808BE7"/>
</svg>
