<svg width="20" height="20" viewBox="0 0 20 20" fill="none" xmlns="http://www.w3.org/2000/svg">
<path d="M11 10H6C5.20435 10 4.44129 10.4097 3.87868 11.139C3.31607 11.8683 3 12.8575 3 13.8889V17" stroke="#3D3F4C" stroke-width="1.4" stroke-linecap="round" stroke-linejoin="round"/>
<path d="M9 7C10.6569 7 12 5.65685 12 4C12 2.34315 10.6569 1 9 1C7.34315 1 6 2.34315 6 4C6 5.65685 7.34315 7 9 7Z" stroke="#3D3F4C" stroke-width="1.4" stroke-linecap="round" stroke-linejoin="round"/>
<path d="M14.5 10.2887C14.8094 10.11 15.1906 10.11 15.5 10.2887L17.9641 11.7113C18.2735 11.89 18.4641 12.2201 18.4641 12.5774V15.4226C18.4641 15.7799 18.2735 16.11 17.9641 16.2887L15.5 17.7113C15.1906 17.89 14.8094 17.89 14.5 17.7113L12.0359 16.2887C11.7265 16.11 11.5359 15.7799 11.5359 15.4226V12.5774C11.5359 12.2201 11.7265 11.89 12.0359 11.7113L14.5 10.2887Z" stroke="#A9ABB2" stroke-width="1.4"/>
<circle cx="15" cy="14" r="1" fill="#A9ABB2" stroke="#A9ABB2"/>
</svg>
