<svg width="28" height="28" viewBox="0 0 28 28" fill="none" xmlns="http://www.w3.org/2000/svg">
<g id="Property 1=BSC Tag">
<path id="&#229;&#164;&#154;&#232;&#190;&#185;&#229;&#189;&#162;&#229;&#164;&#135;&#228;&#187;&#189;" fill-rule="evenodd" clip-rule="evenodd" d="M12.0003 1.15504C13.2379 0.440508 14.7627 0.440508 16.0003 1.15504L24.1247 5.84564C25.3623 6.56017 26.1247 7.88068 26.1247 9.30974V18.6909C26.1247 20.12 25.3623 21.4405 24.1247 22.155L16.0003 26.8456C14.7627 27.5602 13.2379 27.5602 12.0003 26.8456L3.87598 22.155C2.63837 21.4405 1.87598 20.12 1.87598 18.6909V9.30974C1.87598 7.88068 2.63837 6.56017 3.87598 5.84564L12.0003 1.15504Z" fill="#F0B90B"/>
<path id="&#229;&#164;&#154;&#232;&#190;&#185;&#229;&#189;&#162;&#229;&#164;&#135;&#228;&#187;&#189; (Stroke)" fill-rule="evenodd" clip-rule="evenodd" d="M23.5247 6.88487L15.4003 2.19427C14.534 1.6941 13.4667 1.6941 12.6003 2.19427L4.47598 6.88487C3.60965 7.38504 3.07598 8.3094 3.07598 9.30974V18.6909C3.07598 19.6913 3.60965 20.6156 4.47598 21.1158L12.6003 25.8064C13.4667 26.3066 14.534 26.3066 15.4003 25.8064L23.5247 21.1158C24.391 20.6156 24.9247 19.6913 24.9247 18.6909V9.30974C24.9247 8.3094 24.391 7.38504 23.5247 6.88487ZM16.0003 1.15504C14.7627 0.440508 13.2379 0.440508 12.0003 1.15504L3.87598 5.84564C2.63837 6.56017 1.87598 7.88068 1.87598 9.30974V18.6909C1.87598 20.12 2.63837 21.4405 3.87598 22.155L12.0003 26.8456C13.2379 27.5602 14.7627 27.5602 16.0003 26.8456L24.1247 22.155C25.3623 21.4405 26.1247 20.12 26.1247 18.6909V9.30974C26.1247 7.88068 25.3623 6.56017 24.1247 5.84564L16.0003 1.15504Z" fill="white"/>
<g id="icon_dex">
<path id="&#232;&#183;&#175;&#229;&#190;&#132;" d="M14.0004 6.7998L10.4004 8.9905L11.7239 9.7998L14.0004 8.41841L16.2769 9.7998L17.6004 8.9905L14.0004 6.7998Z" fill="white"/>
<path id="&#232;&#183;&#175;&#229;&#190;&#132;_2" d="M16.2769 11L17.6004 11.7894V13.3683L15.3239 14.7157V17.4106L14.0004 18.2L12.6769 17.4106V14.7157L10.4004 13.3683V11.7894L11.7239 11L14.0004 12.3475L16.2769 11Z" fill="white"/>
<path id="&#232;&#183;&#175;&#229;&#190;&#132;_3" d="M17.6004 14V15.6L16.4004 16.4V14.8L17.6004 14Z" fill="white"/>
<path id="&#232;&#183;&#175;&#229;&#190;&#132;_4" d="M16.4004 17.7743L18.6768 16.387V13.6125L20.0004 12.7998V17.1998L16.4004 19.3998V17.7743Z" fill="white"/>
<path id="&#232;&#183;&#175;&#229;&#190;&#132;_5" d="M18.2 10.7002L17 9.9502L18.2 9.2002L19.4 9.9502V11.4502L18.2 12.2002V10.7002Z" fill="white"/>
<path id="&#232;&#183;&#175;&#229;&#190;&#132;_6" d="M12.7998 19.8002V18.2002L13.9998 19.0002L15.1998 18.2002V19.8002L13.9998 20.6002L12.7998 19.8002Z" fill="white"/>
<path id="&#232;&#183;&#175;&#229;&#190;&#132;_7" d="M11.6004 16.4L10.4004 15.6V14L11.6004 14.8V16.4Z" fill="white"/>
<path id="&#232;&#183;&#175;&#229;&#190;&#132;_8" d="M13.9998 11.0002L12.7998 10.1002L13.9998 9.2002L15.1998 10.1002L13.9998 11.0002Z" fill="white"/>
<path id="&#232;&#183;&#175;&#229;&#190;&#132;_9" d="M10.4 9.9502L9.2 10.7002V12.2002L8 11.4502V9.9502L9.2 9.2002L10.4 9.9502Z" fill="white"/>
<path id="&#232;&#183;&#175;&#229;&#190;&#132;_10" d="M8 12.7998L9.32353 13.6125V16.387L11.6 17.7743V19.3998L8 17.1998V12.7998Z" fill="white"/>
</g>
</g>
</svg>
