<svg width="28" height="28" viewBox="0 0 28 28" fill="none" xmlns="http://www.w3.org/2000/svg">
<g id="Property 1=Conflux tag">
<path id="&#229;&#164;&#154;&#232;&#190;&#185;&#229;&#189;&#162;" fill-rule="evenodd" clip-rule="evenodd" d="M12.0003 1.15504C13.2379 0.440508 14.7627 0.440508 16.0003 1.15504L24.1247 5.84564C25.3623 6.56017 26.1247 7.88068 26.1247 9.30974V18.6909C26.1247 20.12 25.3623 21.4405 24.1247 22.155L16.0003 26.8456C14.7627 27.5602 13.2379 27.5602 12.0003 26.8456L3.87598 22.155C2.63837 21.4405 1.87598 20.12 1.87598 18.6909V9.30974C1.87598 7.88068 2.63837 6.56017 3.87598 5.84564L12.0003 1.15504Z" fill="white"/>
<path id="&#229;&#164;&#154;&#232;&#190;&#185;&#229;&#189;&#162; (Stroke)" fill-rule="evenodd" clip-rule="evenodd" d="M23.5247 6.88487L15.4003 2.19427C14.534 1.6941 13.4667 1.6941 12.6003 2.19427L4.47598 6.88487C3.60965 7.38504 3.07598 8.3094 3.07598 9.30974V18.6909C3.07598 19.6913 3.60965 20.6156 4.47598 21.1158L12.6003 25.8064C13.4667 26.3066 14.534 26.3066 15.4003 25.8064L23.5247 21.1158C24.391 20.6156 24.9247 19.6913 24.9247 18.6909V9.30974C24.9247 8.3094 24.391 7.38504 23.5247 6.88487ZM16.0003 1.15504C14.7627 0.440508 13.2379 0.440508 12.0003 1.15504L3.87598 5.84564C2.63837 6.56017 1.87598 7.88068 1.87598 9.30974V18.6909C1.87598 20.12 2.63837 21.4405 3.87598 22.155L12.0003 26.8456C13.2379 27.5602 14.7627 27.5602 16.0003 26.8456L24.1247 22.155C25.3623 21.4405 26.1247 20.12 26.1247 18.6909V9.30974C26.1247 7.88068 25.3623 6.56017 24.1247 5.84564L16.0003 1.15504Z" fill="#44D7B6"/>
<g id="&#231;&#188;&#150;&#231;&#187;&#132;">
<path id="Fill 1" fill-rule="evenodd" clip-rule="evenodd" d="M8.5791 17.6693L13.7612 22.8512L18.9762 17.6362L17.2479 15.9079L13.7817 19.3743L12.0579 17.6507L15.5242 14.1843L13.7943 12.4541L8.5791 17.6693Z" fill="#231916"/>
<path id="Fill 2" fill-rule="evenodd" clip-rule="evenodd" d="M13.8214 5.47754L6.86914 12.4298L6.89259 15.8734L13.79 8.97614L20.7148 15.9009L20.727 12.3832L13.8214 5.47754Z" fill="#38A0DA"/>
</g>
</g>
</svg>
