<svg width="1438" height="900" viewBox="0 0 1438 900" fill="none" xmlns="http://www.w3.org/2000/svg">
<path d="M-2 0H1438V900H-2V0Z" fill="#373739"/>
<path d="M893.155 103.805C807.795 110.877 734.5 58.5 726 -7H1460.11C1458.11 114.854 1455.31 359.699 1460.11 364.245C1466.11 369.927 1442.12 374.662 1375.51 334.886C1308.9 295.11 1360.99 207.665 1310.48 183.989C1276.39 168.007 1285.32 197.816 1221.78 183.989C1153.59 169.152 1189.26 82.97 1113.81 66.8701C1038.37 50.7702 999.854 94.966 893.155 103.805Z" fill="#2E2E32" stroke="#3C3C48" stroke-width="2"/>
<path d="M478.628 347.342C530.367 301.465 661.446 212.136 771.856 221.834C909.869 233.955 1027.5 501 1241.87 506.262C1423.79 510.728 1444.64 481.028 1469 477" stroke="#3C3C48" stroke-width="2"/>
<path d="M173.939 312.018C71.9047 316.749 -45.9422 223.042 -87.3099 175L-113 1067H1545V626.726C1523.39 625.409 1442 609 1259.64 626.726C1040.1 648.065 1065.6 812.058 842.672 732.154C686 676 812.388 281.23 629 222C407 150.299 390 302 173.939 312.018Z" fill="url(#paint0_linear_dark)"/>
<path d="M5.47449 469.009C-52.1203 482.282 -85.5063 474.539 -95 469.009V1043H1479.36C1494.26 939.237 1481.74 733.211 1312.43 739.215C1100.8 746.721 1128.89 861.282 861.881 841.135C594.872 820.988 489.255 493.106 357.531 424.369C225.806 355.633 77.468 452.417 5.47449 469.009Z" fill="#2E2E32" stroke="#3C3C48" stroke-width="2"/>
<path d="M309.44 -95C321.294 -47.5827 322.005 59.7827 230.022 109.906C115.044 172.56 2.04147 87.445 -49.7185 91.3855C-91.1265 94.5379 -116.493 92.699 -124 91.3855" stroke="#3C3C48" stroke-width="2"/>
<defs>
<linearGradient id="paint0_linear_dark" x1="764.5" y1="323" x2="565.5" y2="796.5" gradientUnits="userSpaceOnUse">
<stop offset="0.0323257" stop-color="#2E2E32"/>
<stop offset="1" stop-color="#373739"/>
</linearGradient>
</defs>
</svg>
