<svg width="1440" height="900" viewBox="0 0 1440 900" fill="none" xmlns="http://www.w3.org/2000/svg">
  <path d="M895.155 103.805C809.795 110.877 736.5 58.5 728 -7H1462.11C1460.11 114.854 1457.31 359.699 1462.11 364.245C1468.11 369.927 1444.12 374.662 1377.51 334.886C1310.9 295.11 1362.99 207.665 1312.48 183.989C1278.39 168.007 1287.32 197.816 1223.78 183.989C1155.59 169.152 1191.26 82.97 1115.81 66.8701C1040.37 50.7702 1001.85 94.966 895.155 103.805Z" fill="#F8F9FE" stroke="#EAEDFC" stroke-width="2" />
  <path d="M480.628 347.342C532.367 301.466 663.446 212.137 773.856 221.834C911.869 233.955 1029.5 501 1243.87 506.263C1425.79 510.729 1446.64 481.029 1471 477" stroke="#F8F9FE" stroke-width="2" />
  <path d="M175.939 312.018C73.9047 316.749 -43.9422 223.042 -85.3099 175L-111 1067H1547V626.726C1525.39 625.409 1444 609 1261.64 626.726C1042.1 648.065 1067.6 812.058 844.672 732.154C688 676 814.388 281.23 631 222C409 150.299 392 302 175.939 312.018Z" fill="url(#paint0_linear)" />
  <path d="M7.47449 469.009C-50.1203 482.282 -83.5063 474.539 -93 469.009V1043H1481.36C1496.26 939.237 1483.74 733.211 1314.43 739.215C1102.8 746.721 1130.89 861.282 863.881 841.135C596.872 820.988 491.255 493.106 359.531 424.369C227.806 355.633 79.468 452.417 7.47449 469.009Z" fill="#F8F9FE" stroke="#EAEDFC" stroke-width="2" />
  <path d="M311.44 -95C323.294 -47.5827 324.005 59.7827 232.022 109.906C117.044 172.56 4.04147 87.445 -47.7185 91.3855C-89.1265 94.5379 -114.493 92.699 -122 91.3855" stroke="#F8F9FE" stroke-width="2" />
  <defs>
    <linearGradient id="paint0_linear" x1="766.5" y1="323" x2="567.5" y2="796.5" gradientUnits="userSpaceOnUse">
      <stop offset="0.0323257" stop-color="#F8F9FE" />
      <stop offset="1" stop-color="#F8F9FE" stop-opacity="0" />
    </linearGradient>
  </defs>
</svg>